<?xml version="1.0" standalone="no"?><!DOCTYPE svg PUBLIC "-//W3C//DTD SVG 1.1//EN" "http://www.w3.org/Graphics/SVG/1.1/DTD/svg11.dtd"><svg t="1723179024658" class="icon" viewBox="0 0 4500 1024" version="1.1" xmlns="http://www.w3.org/2000/svg" p-id="2568" xmlns:xlink="http://www.w3.org/1999/xlink" width="878.90625" height="200"><path d="M0 614.130526C0 840.865684 183.107368 1024 409.869474 1024V614.130526H0z" fill="#FA48E8" p-id="2569"></path><path d="M409.869474 409.869474C409.869474 183.134316 226.816 0 0 0v615.531789h409.869474v-205.635368z" fill="#93DC08" p-id="2570"></path><path d="M409.869474 614.130526V1024h409.923368c0-225.360842-184.535579-409.869474-409.896421-409.869474z" fill="#FFDD17" p-id="2571"></path><path d="M4077.109895 722.809263c-7.329684-16.707368-15.333053-35.354947-24.010106-56.050526a2376.192 2376.192 0 0 1-26.031157-71.033263c-8.650105-26.677895-18.000842-57.047579-27.998316-91.082106-9.350737-34.681263-19.348211-74.374737-30.019369-119.053473 9.323789-9.350737 21.665684-17.354105 37.025685-24.037053a123.257263 123.257263 0 0 1 52.035368-10.994526c23.336421 0 42.684632 4.985263 58.017684 15.009684 15.36 9.323789 26.704842 27.351579 34.034527 54.029474l79.036631 275.186526h4.015158c8.003368-22.689684 15.683368-47.373474 23.013053-74.051368 8.003368-26.677895 15.683368-54.029474 23.013052-82.054737 7.356632-28.672 14.012632-57.047579 20.021895-85.045895a1450.576842 1450.576842 0 0 0 17.003789-84.075789c24.010105-12.665263 50.364632-18.997895 79.063579-18.997895 23.336421 0 42.684632 4.985263 58.044632 15.009684 15.333053 9.997474 23.013053 27.351579 23.013053 52.008421 0 18.054737-2.344421 39.046737-7.006316 63.056842a834.074947 834.074947 0 0 1-19.024842 75.048421c-7.329684 26.677895-16.330105 54.379789-27.001263 83.05179a1794.236632 1794.236632 0 0 1-32.040421 83.078737 1450.145684 1450.145684 0 0 1-35.004632 78.039578 1121.118316 1121.118316 0 0 1-35.031579 65.050948c-18.674526 32.687158-36.028632 59.365053-52.035368 80.033684-16.006737 20.695579-31.366737 36.702316-46.026106 48.047158-14.686316 12.018526-29.372632 20.021895-44.032 24.010105a150.905263 150.905263 0 0 1-46.026105 7.006316c-28.025263 0-50.714947-8.353684-68.069053-25.007158-17.327158-16.680421-27.674947-38.373053-31.016421-65.050947a797.103158 797.103158 0 0 0 64.053895-56.050527c21.342316-19.994947 40.690526-40.690526 58.044632-62.032842-11.344842-3.314526-23.686737-10.994526-37.025685-23.013052-12.692211-12.665263-26.704842-36.028632-42.037894-70.063158zM3744.148211 845.877895c-6.682947 2.021053-17.354105 4.015158-32.040422 6.009263-13.985684 2.021053-28.672 3.018105-44.005052 3.018105-14.686316 0-28.025263-1.024-40.04379-3.018105a66.937263 66.937263 0 0 1-29.022315-11.991579 62.167579 62.167579 0 0 1-18.997895-24.037053c-4.015158-10.671158-6.009263-24.333474-6.009263-41.013894v-300.193685c0-15.36 2.667789-28.375579 8.003368-39.046736 6.009263-11.317895 14.336-21.342316 25.007158-30.019369a167.073684 167.073684 0 0 1 39.046737-23.013053 384.781474 384.781474 0 0 1 107.061895-31.016421 341.018947 341.018947 0 0 1 58.044631-5.01221c32.013474 0 57.370947 6.359579 76.045474 19.024842 18.674526 11.991579 28.025263 32.013474 28.025263 60.038737 0 9.350737-1.347368 18.674526-4.015158 28.025263a130.56 130.56 0 0 1-9.997474 24.010105 475.621053 475.621053 0 0 0-86.069894 8.003369c-14.012632 2.694737-27.351579 5.658947-40.016842 9.000421-12.018526 2.694737-22.339368 6.009263-31.016421 10.024421V845.877895zM3237.214316 223.447579c76.719158 0 135.087158 16.033684 175.104 48.047158 40.043789 31.366737 60.038737 73.728 60.038737 127.083789 0 32.013474-8.677053 59.365053-26.004211 82.054737-16.680421 22.016-36.702316 38.696421-60.038737 50.041263 14.012632 5.335579 27.001263 11.991579 39.01979 19.994948 12.018526 8.030316 22.689684 18.027789 32.013473 30.019368 9.350737 12.018526 16.680421 26.031158 22.016 42.037895 5.335579 16.006737 8.003368 34.681263 8.003369 56.050526 0 28.672-6.332632 54.352842-18.997895 77.042526a169.364211 169.364211 0 0 1-51.038316 58.044632c-22.016 16.006737-48.370526 28.025263-79.063579 36.028632-30.019368 8.650105-63.029895 12.988632-99.058526 12.988631-69.389474 0-121.748211-9.674105-157.103158-29.022316-35.354947-19.321263-53.032421-44.005053-53.032421-74.024421 0-18.027789 4.338526-33.360842 12.988632-46.053052a94.585263 94.585263 0 0 1 32.040421-30.989474c13.338947 9.323789 31.016421 19.321263 53.032421 29.992421 22.689684 10.024421 52.035368 15.009684 88.064 15.009684 34.007579 0 59.041684-6.009263 75.048421-18.000842 16.680421-12.018526 25.007158-27.701895 25.007158-47.023158 0-19.348211-6.656-34.034526-20.021895-44.032-12.665263-10.024421-35.004632-15.009684-67.045053-15.009684h-94.046315a113.771789 113.771789 0 0 1-12.018527-27.02821c-3.341474-10.671158-4.985263-23.363368-4.985263-38.022737 0-15.36 1.320421-28.348632 3.988211-39.01979 3.341474-11.344842 7.68-20.695579 13.015579-28.025263h94.046315c48.047158 0 72.057263-18.351158 72.057264-55.053474 0-17.327158-7.68-31.339789-23.013053-42.037894-15.333053-10.644211-38.346105-15.979789-69.039158-15.97979-27.351579 0-51.361684 3.314526-72.057263 9.997474-20.668632 6.009263-37.699368 13.689263-51.038316 23.013053a105.121684 105.121684 0 0 1-27.998316-29.022316c-7.356632-12.018526-11.021474-26.004211-11.021473-42.037895 0-33.333895 17.354105-57.667368 52.035368-73.027368 34.681263-16.006737 81.057684-24.037053 139.102316-24.037053zM2825.539368 679.774316c0 17.327158 5.335579 29.669053 16.006737 36.998737 11.344842 7.356632 27.028211 11.021474 47.050106 11.021473 9.997474 0 20.345263-0.673684 31.016421-1.994105 10.671158-2.021053 20.021895-4.338526 28.025263-7.006316 5.982316 7.329684 10.994526 15.683368 15.009684 25.007158 4.661895 8.677053 7.006316 19.348211 7.006316 32.013474 0 25.357474-9.674105 46.053053-29.022316 62.059789-18.674526 16.006737-52.035368 23.983158-100.082526 23.983158-58.691368 0-104.070737-13.312-136.084211-39.989895-31.339789-26.677895-47.023158-70.063158-47.023158-130.101894V263.491368c7.329684-2.021053 17.677474-4.015158 30.989474-6.009263a234.927158 234.927158 0 0 1 44.058947-4.015158c29.345684 0 52.035368 5.335579 68.042106 16.006737 16.680421 10.024421 25.007158 31.690105 25.007157 65.050948v64.053894h131.098948c3.988211 7.329684 7.68 16.680421 10.994526 28.025263 4.015158 10.671158 6.009263 22.662737 6.009263 36.001685 0 23.363368-5.335579 40.367158-16.006737 51.038315-9.997474 10.024421-23.686737 15.009684-41.013894 15.009685h-91.082106v151.120842zM2424.885895 679.774316c0 17.327158 5.335579 29.669053 16.006737 36.998737 11.344842 7.356632 27.028211 11.021474 47.050105 11.021473 9.970526 0 20.345263-0.673684 30.989474-1.994105 10.698105-2.021053 20.021895-4.338526 28.025263-7.006316 6.009263 7.329684 11.021474 15.683368 15.009684 25.007158 4.688842 8.677053 7.006316 19.348211 7.006316 32.013474 0 25.357474-9.647158 46.053053-28.995369 62.059789-18.701474 16.006737-52.035368 23.983158-100.082526 23.983158-58.691368 0-104.070737-13.312-136.084211-39.989895-31.366737-26.677895-47.023158-70.063158-47.023157-130.101894V263.491368c7.329684-2.021053 17.677474-4.015158 30.989473-6.009263a234.954105 234.954105 0 0 1 44.058948-4.015158c29.345684 0 52.008421 5.335579 68.042105 16.006737 16.680421 10.024421 25.007158 31.690105 25.007158 65.050948v64.053894h131.098947c3.988211 7.329684 7.653053 16.680421 10.994526 28.025263 4.015158 10.671158 6.009263 22.662737 6.009264 36.001685 0 23.363368-5.335579 40.367158-16.006737 51.038315-10.024421 10.024421-23.686737 15.009684-41.040842 15.009685h-91.055158v151.120842zM2171.769263 603.728842c0 41.364211-6.332632 78.389895-18.997895 111.077053-12.665263 32.013474-30.72 59.014737-54.056421 81.057684-22.662737 22.016-50.014316 38.696421-82.054736 50.014316-32.013474 11.344842-67.691789 17.030737-107.061895 17.030737-39.343158 0-75.048421-6.009263-107.061895-18.02779-32.040421-11.991579-59.715368-29.022316-83.078737-51.038316-22.662737-22.662737-40.340211-50.014316-53.032421-82.054737-12.665263-32.013474-18.997895-68.042105-18.997895-108.058947 0-39.343158 6.332632-75.048421 18.997895-107.088842 12.665263-32.013474 30.369684-59.014737 53.032421-81.030737a237.082947 237.082947 0 0 1 83.078737-52.035368c32.013474-12.018526 67.691789-18.027789 107.061895-18.02779 39.343158 0 75.048421 6.332632 107.061895 19.024842 32.040421 11.991579 59.392 29.372632 82.054736 52.008421 23.363368 22.042947 41.364211 49.044211 54.056421 81.084632 12.665263 32.013474 18.997895 67.368421 18.997895 106.064842z m-350.234947 0c0 40.690526 7.68 72.057263 23.013052 94.046316 16.006737 21.369263 38.022737 32.040421 66.048 32.040421s49.367579-11.021474 64.053895-33.037474c15.36-21.989053 23.013053-53.032421 23.013053-93.049263 0-40.016842-7.68-70.709895-23.013053-92.05221-15.36-22.016-37.025684-33.037474-65.050947-33.037474s-49.690947 11.021474-65.050948 33.037474c-15.36 21.342316-23.013053 52.008421-23.013052 92.05221zM1271.242105 849.866105c-28.672 0-51.361684-8.326737-68.042105-25.007158s-25.007158-39.343158-25.007158-68.042105V239.454316c7.329684-1.347368 18.997895-2.964211 35.031579-4.985263a280.144842 280.144842 0 0 1 46.026105-4.015158c15.333053 0 28.672 1.347368 40.016842 4.015158 11.991579 1.994105 22.016 6.009263 30.019369 11.991579 8.003368 6.009263 14.012632 14.362947 18.000842 25.034105 4.015158 10.671158 6.009263 24.683789 6.009263 42.037895v395.237052h229.160421c4.661895 7.356632 9.000421 17.354105 13.015579 30.019369 3.988211 12.018526 5.982316 24.683789 5.982316 38.049684 0 26.677895-5.658947 45.675789-16.976842 57.020631-11.371789 10.671158-26.381474 16.006737-45.056 16.006737h-268.180211z" fill="#FFFFFF" p-id="2572"></path></svg>