<svg width="200" height="200" viewBox="0 0 200 200" fill="none" xmlns="http://www.w3.org/2000/svg">
<g id="Frame">
<path id="Vector" d="M64.5391 51.3359C64.5391 54.5272 65.1672 57.6871 66.3877 60.6354C67.6081 63.5837 69.3969 66.2626 71.652 68.5192C73.9071 70.7757 76.5843 72.5657 79.5307 73.7869C82.4771 75.0082 85.635 75.6367 88.8242 75.6367C92.0134 75.6367 95.1713 75.0082 98.1177 73.7869C101.064 72.5657 103.741 70.7757 105.996 68.5192C108.252 66.2626 110.04 63.5837 111.261 60.6354C112.481 57.6871 113.109 54.5272 113.109 51.3359C113.109 44.891 110.551 38.71 105.996 34.1527C101.442 29.5954 95.265 27.0352 88.8242 27.0352C82.3834 27.0352 76.2064 29.5954 71.652 34.1527C67.0977 38.71 64.5391 44.891 64.5391 51.3359Z" fill="#FCC419"/>
<path id="Vector_2" d="M69.4492 51.3359C69.4492 53.8824 69.9504 56.4038 70.9241 58.7564C71.8977 61.109 73.3249 63.2466 75.124 65.0472C76.9232 66.8478 79.059 68.2761 81.4097 69.2505C83.7604 70.225 86.2799 70.7266 88.8242 70.7266C91.3686 70.7266 93.888 70.225 96.2387 69.2505C98.5894 68.2761 100.725 66.8478 102.524 65.0472C104.324 63.2466 105.751 61.109 106.724 58.7564C107.698 56.4038 108.199 53.8824 108.199 51.3359C108.199 46.1932 106.158 41.2611 102.524 37.6247C98.8909 33.9882 93.9628 31.9453 88.8242 31.9453C83.6857 31.9453 78.7575 33.9882 75.124 37.6247C71.4905 41.2611 69.4492 46.1932 69.4492 51.3359Z" fill="#FFD43B"/>
<path id="Vector_3" d="M92.9688 46.0039C92.697 46.1637 92.3771 46.2216 92.0665 46.1672C91.7559 46.1128 91.4748 45.9497 91.2735 45.707C91.1049 45.4946 90.9015 45.3123 90.6719 45.168C90.1989 44.8915 89.6568 44.756 89.1094 44.7773C88.3981 44.7546 87.7031 44.9937 87.1563 45.4492C86.9079 45.6479 86.7084 45.9008 86.5729 46.1886C86.4375 46.4764 86.3698 46.7914 86.375 47.1094C86.375 48.0286 87.0586 48.7695 88.4258 49.332L90.3047 50.1133C91.8334 50.7331 92.9519 51.4883 93.6602 52.3789C94.3834 53.3152 94.759 54.4737 94.7227 55.6562C94.7473 56.4532 94.6062 57.2466 94.3083 57.9862C94.0104 58.7259 93.5623 59.3956 92.9922 59.9531C92.4227 60.5142 91.7459 60.9546 91.0022 61.2479C90.2585 61.5412 89.4633 61.6814 88.6641 61.6602C87.1773 61.7143 85.7267 61.1939 84.6133 60.207C83.8929 59.5195 83.3557 58.6628 83.0508 57.7148C82.9816 57.5208 82.9542 57.3143 82.9705 57.1089C82.9868 56.9035 83.0463 56.7039 83.1451 56.5231C83.244 56.3423 83.38 56.1845 83.5441 56.06C83.7083 55.9356 83.897 55.8472 84.0977 55.8008C84.4626 55.7252 84.8425 55.7919 85.1598 55.9872C85.4772 56.1825 85.7079 56.4917 85.8047 56.8516C85.8895 57.1822 86.0337 57.4946 86.2305 57.7734C86.5108 58.125 86.8611 58.4144 87.2592 58.6233C87.6573 58.8322 88.0945 58.956 88.5431 58.9868C88.9916 59.0177 89.4417 58.9549 89.8646 58.8025C90.2876 58.6501 90.6743 58.4114 91 58.1016C91.2915 57.8041 91.5196 57.4507 91.6707 57.0626C91.8217 56.6746 91.8926 56.2599 91.8789 55.8437C91.8828 55.5018 91.8313 55.1615 91.7266 54.8359C91.6229 54.5269 91.4612 54.2405 91.25 53.9922C91.0077 53.7133 90.7261 53.4712 90.4141 53.2734C90.0269 53.0255 89.6192 52.8111 89.1953 52.6328L87.3789 51.875C84.8008 50.7838 83.5117 49.1888 83.5117 47.0898C83.5008 46.4147 83.6407 45.7456 83.9211 45.1313C84.2016 44.517 84.6155 43.9731 85.1328 43.5391C86.2477 42.5664 87.6892 42.0514 89.168 42.0976C89.9539 42.0821 90.7334 42.2408 91.4506 42.5623C92.1679 42.8838 92.8051 43.3601 93.3164 43.957C93.4465 44.107 93.5418 44.2839 93.5953 44.4751C93.6489 44.6662 93.6594 44.8669 93.6262 45.0626C93.5929 45.2583 93.5168 45.4442 93.4031 45.607C93.2894 45.7698 93.1411 45.9053 92.9688 46.0039Z" fill="#FFD43B"/>
<path id="Vector_4" d="M88.8242 64.5117C88.4285 64.5117 88.0489 64.3545 87.7691 64.0747C87.4892 63.7948 87.332 63.4153 87.332 63.0195V61.3281C87.332 60.9324 87.4892 60.5528 87.7691 60.273C88.0489 59.9932 88.4285 59.8359 88.8242 59.8359C89.22 59.8359 89.5995 59.9932 89.8793 60.273C90.1592 60.5528 90.3164 60.9324 90.3164 61.3281V63.0234C90.3154 63.4185 90.1577 63.7971 89.878 64.076C89.5982 64.355 89.2193 64.5117 88.8242 64.5117ZM88.8242 43.9883C88.4285 43.9883 88.0489 43.8311 87.7691 43.5512C87.4892 43.2714 87.332 42.8918 87.332 42.4961V40.8008C87.332 40.405 87.4892 40.0255 87.7691 39.7456C88.0489 39.4658 88.4285 39.3086 88.8242 39.3086C89.22 39.3086 89.5995 39.4658 89.8793 39.7456C90.1592 40.0255 90.3164 40.405 90.3164 40.8008V42.4961C90.3164 42.8918 90.1592 43.2714 89.8793 43.5512C89.5995 43.8311 89.22 43.9883 88.8242 43.9883Z" fill="#FFD43B"/>
<path id="Vector_5" d="M57.6164 59.8363L128.028 19.1516C131.401 17.2025 134.062 17.9146 136.011 21.2878L161.04 64.604C162.989 67.9772 162.277 70.6384 158.904 72.5875L88.4925 113.272C85.1193 115.221 82.4581 114.509 80.509 111.136L55.4802 67.8198C53.5311 64.4466 54.2432 61.7854 57.6164 59.8363Z" fill="#20C997"/>
<path id="Vector_6" d="M74.9062 44.2852H152.797C157.962 44.2893 162.915 46.3445 166.566 49.9989C170.216 53.6533 172.267 58.6079 172.266 63.7734V150.438C172.266 155.602 170.215 160.556 166.564 164.21C162.914 167.863 157.962 169.918 152.797 169.922H74.9062C64.5711 169.922 54.6592 165.816 47.3512 158.508C40.0431 151.2 35.9375 141.288 35.9375 130.953V83.2578C35.9375 72.9227 40.0431 63.0108 47.3512 55.7027C54.6592 48.3947 64.5711 44.2891 74.9062 44.2891V44.2852Z" fill="#5C7CFA"/>
<path id="Vector_7" d="M146.016 88.5625H173.102C174.434 88.5625 175.712 89.0918 176.654 90.0338C177.596 90.9759 178.125 92.2536 178.125 93.5859V120.625C178.125 121.957 177.596 123.235 176.654 124.177C175.712 125.119 174.434 125.648 173.102 125.648H146.016C141.1 125.648 136.385 123.696 132.909 120.22C129.433 116.744 127.48 112.029 127.48 107.113C127.48 102.197 129.433 97.483 132.909 94.0069C136.385 90.5309 141.1 88.5781 146.016 88.5781V88.5625Z" fill="#91A7FF"/>
<path id="Vector_8" d="M138.891 107.105C138.891 108.952 139.624 110.722 140.928 112.028C142.233 113.333 144.003 114.066 145.848 114.066C147.693 114.066 149.462 113.333 150.767 112.028C152.072 110.722 152.805 108.952 152.805 107.105C152.805 105.259 152.072 103.489 150.767 102.183C149.462 100.878 147.693 100.145 145.848 100.145C144.003 100.145 142.233 100.878 140.928 102.183C139.624 103.489 138.891 105.259 138.891 107.105Z" fill="white"/>
<path id="Vector_9" d="M79.8164 115.937C79.7539 121.617 80.1563 127.293 80.0586 131.742C80.1055 138.645 80.168 144.324 79.0117 149.93C77.3242 158.078 72.9375 164.75 66.9375 170.516C62.7194 174.518 57.852 177.773 52.543 180.145C52.1242 180.359 51.6602 180.472 51.1895 180.472C50.7187 180.472 50.2548 180.359 49.836 180.145C39.5391 175.398 31.5508 168.332 26.3399 158.426C24.1094 154.187 23.1211 149.645 22.6602 144.961C21.9141 137.363 22.4571 129.758 22.4961 122.156C22.4961 120.047 22.6367 117.934 22.6289 115.816C22.6289 115.102 22.9063 114.762 23.6055 114.551C32.5951 111.829 41.5794 109.095 50.5586 106.348C51.0758 106.214 51.6217 106.244 52.1211 106.434C60.9544 109.129 69.7917 111.814 78.6328 114.488C79.4453 114.723 79.8242 115.055 79.8164 115.937Z" fill="#20C997"/>
<path id="Vector_10" d="M51.1992 173.828C42.5313 169.531 36.2656 163.555 32.0586 155.578C30.4609 152.543 29.5078 148.977 29.0547 144.355C28.5547 139.277 28.6641 134.141 28.8047 128.73C28.8555 126.594 28.9063 124.387 28.918 122.184C28.918 121.297 28.9492 120.398 28.9805 119.449C35.6719 117.422 42.8438 115.238 51.1875 112.688C59.0273 115.082 66.2383 117.277 73.3789 119.437C73.4063 121.168 73.457 122.867 73.5078 124.516C73.5859 127.102 73.6602 129.543 73.6133 131.602V132.211C73.6563 138.707 73.6914 143.836 72.6875 148.695C71.3867 154.984 68 160.672 62.3945 166.078C59.0892 169.229 55.3119 171.844 51.1992 173.828Z" fill="#12B886"/>
<path id="Vector_11" d="M46.0039 152.211C45.6847 152.212 45.3685 152.149 45.0735 152.027C44.7786 151.905 44.5106 151.726 44.2851 151.5L38.9375 146.141C38.5173 145.678 38.291 145.072 38.3056 144.447C38.3202 143.823 38.5744 143.227 39.0158 142.785C39.4571 142.343 40.0516 142.087 40.6762 142.071C41.3009 142.055 41.9077 142.28 42.3711 142.699L46.0039 146.336L59.9687 132.344C60.4251 131.888 61.0436 131.633 61.6883 131.634C62.3329 131.635 62.9509 131.891 63.4062 132.348C63.8615 132.804 64.1169 133.423 64.1162 134.067C64.1155 134.712 63.8587 135.33 63.4023 135.785L47.7226 151.496C47.4976 151.723 47.2298 151.903 46.9348 152.026C46.6398 152.148 46.3234 152.211 46.0039 152.211Z" fill="white"/>
</g>
</svg>
