<svg width="27" height="20" viewBox="0 0 27 20" fill="none" xmlns="http://www.w3.org/2000/svg">
<path id="Vector" d="M22.8565 1.65781C21.1061 0.87703 19.2589 0.320276 17.361 0.0014919C17.3437 -0.00178471 17.3258 0.000367382 17.3098 0.00763762C17.2938 0.0149079 17.2807 0.0269205 17.2722 0.0419432C17.0359 0.451923 16.7727 0.987629 16.5882 1.40854C14.5424 1.10656 12.4613 1.10656 10.4155 1.40854C10.2102 0.940947 9.97844 0.484721 9.72138 0.0419432C9.71252 0.0272569 9.69928 0.0155288 9.68341 0.0083068C9.66754 0.00108484 9.6498 -0.00129136 9.63251 0.0014919C7.73469 0.318543 5.88637 0.876115 4.13705 1.65781C4.12223 1.66385 4.10967 1.67415 4.10105 1.68733C0.600149 6.76998 -0.359449 11.7269 0.111912 16.6215C0.113121 16.6336 0.116832 16.6454 0.122824 16.6561C0.128816 16.6668 0.136965 16.6763 0.146786 16.6838C2.18477 18.1512 4.46454 19.2714 6.88872 19.9965C6.90579 20.0014 6.92403 20.0012 6.94095 19.9957C6.95786 19.9902 6.97262 19.9798 6.98321 19.9659C7.50295 19.2771 7.96643 18.5501 8.36355 17.7859C8.36905 17.7754 8.3722 17.7638 8.37276 17.752C8.37333 17.7403 8.37132 17.7285 8.36685 17.7175C8.36238 17.7066 8.35556 17.6967 8.34684 17.6885C8.33813 17.6803 8.32772 17.674 8.3163 17.67C7.58892 17.3995 6.88474 17.0734 6.21036 16.6948C6.19811 16.6877 6.18781 16.6778 6.18036 16.666C6.17291 16.6542 6.16854 16.6408 6.16761 16.627C6.16671 16.6132 6.16931 16.5994 6.1752 16.5868C6.18109 16.5742 6.19007 16.5632 6.20136 16.5548C6.34311 16.4521 6.48485 16.3449 6.61985 16.2356C6.63189 16.2263 6.64632 16.2203 6.66159 16.2184C6.67686 16.2165 6.69238 16.2186 6.70647 16.2247C11.1253 18.1849 15.9087 18.1849 20.2758 16.2247C20.29 16.2183 20.3058 16.2159 20.3213 16.2179C20.3368 16.2198 20.3515 16.2259 20.3636 16.2356C20.4986 16.3427 20.6403 16.4521 20.7832 16.5548C20.7944 16.5631 20.8033 16.5739 20.8092 16.5863C20.8151 16.5986 20.8178 16.6123 20.8169 16.6259C20.8164 16.6397 20.8125 16.6532 20.8054 16.6652C20.7984 16.6772 20.7884 16.6873 20.7764 16.6948C20.1026 17.0763 19.3984 17.4021 18.6694 17.6678C18.652 17.6739 18.6372 17.6853 18.627 17.7002C18.6169 17.7152 18.612 17.733 18.6131 17.7509C18.6143 17.764 18.6176 17.7749 18.6233 17.7859C19.0282 18.549 19.4917 19.2749 20.0013 19.9648C20.0119 19.9787 20.0267 19.9891 20.0436 19.9946C20.0605 20.0001 20.0788 20.0003 20.0958 19.9954C22.5241 19.2725 24.8075 18.1522 26.8479 16.6827C26.8578 16.6759 26.8662 16.6671 26.8724 16.6569C26.8786 16.6468 26.8825 16.6354 26.8839 16.6237C27.4464 10.9638 25.9412 6.04732 22.8914 1.68951C22.8843 1.67476 22.8719 1.66307 22.8565 1.65672V1.65781ZM9.02278 13.6401C7.69307 13.6401 6.59622 12.4539 6.59622 10.9955C6.59622 9.53816 7.67169 8.35086 9.02278 8.35086C10.384 8.35086 11.4707 9.5491 11.4493 10.9966C11.4493 12.4539 10.3739 13.6401 9.02278 13.6401ZM17.9944 13.6401C16.6636 13.6401 15.5678 12.4539 15.5678 10.9955C15.5678 9.53816 16.6422 8.35086 17.9944 8.35086C19.3556 8.35086 20.4423 9.5491 20.4209 10.9966C20.4209 12.4539 19.3567 13.6401 17.9944 13.6401Z" fill="#202020"/>
</svg>
