<svg width="28" height="16" viewBox="0 0 28 16" fill="none" xmlns="http://www.w3.org/2000/svg">
<path id="Vector" d="M15.7967 8C15.8029 10.102 14.9746 12.1206 13.4937 13.6124C12.0128 15.1043 10.0004 15.9474 7.89837 15.9567C5.79634 15.9474 3.78391 15.1043 2.30302 13.6124C0.822124 12.1206 -0.00616833 10.102 3.45897e-05 8C-0.00616833 5.89796 0.822124 3.87939 2.30302 2.38755C3.78391 0.895723 5.79634 0.0525996 7.89837 0.043335C10.0004 0.0525995 12.0128 0.895723 13.4937 2.38755C14.9746 3.87939 15.8029 5.89796 15.7967 8ZM24.4534 8C24.4534 12.13 22.6917 15.49 20.51 15.49C18.3284 15.49 16.555 12.13 16.555 8C16.555 3.87 18.3284 0.510002 20.51 0.510002C22.6917 0.510002 24.4534 3.87 24.4534 8ZM28 8C28 11.6983 27.3817 14.7083 26.6117 14.7083C25.8417 14.7083 25.2234 11.6983 25.2234 8C25.2234 4.30167 25.8417 1.29167 26.6117 1.29167C27.3817 1.29167 28 4.30167 28 8Z" fill="#202020"/>
</svg>
