<svg width="23" height="20" viewBox="0 0 23 20" fill="none" xmlns="http://www.w3.org/2000/svg">
<path id="Vector" d="M21.0477 0.668028C18.0133 1.92582 5.00528 7.31136 1.41 8.77943C-1.00113 9.71986 0.410881 10.6019 0.410881 10.6019C0.410881 10.6019 2.4695 11.3067 4.23208 11.8363C5.99661 12.3659 6.9373 11.7779 6.9373 11.7779L15.2283 6.19375C18.1672 4.19608 17.4622 5.84134 16.7571 6.54617C15.2283 8.0746 12.7003 10.4831 10.5832 12.4243C9.64253 13.2479 10.1138 13.9527 10.5248 14.3052C12.0537 15.598 16.2293 18.244 16.463 18.4193C17.7056 19.2974 20.1479 20.563 20.5199 17.8897L21.9903 8.66261C22.4617 5.54733 22.931 2.66765 22.9895 1.84405C23.1667 -0.155573 21.0496 0.668028 21.0496 0.668028H21.0477Z" fill="url(#paint0_linear_666_3162)"/>
<defs>
<linearGradient id="paint0_linear_666_3162" x1="1150" y1="0.5" x2="1150" y2="1886.41" gradientUnits="userSpaceOnUse">
<stop stop-color="#2AABEE"/>
<stop offset="1" stop-color="#229ED9"/>
</linearGradient>
</defs>
</svg>
