<svg width="624" height="780" viewBox="0 0 624 780" fill="none" xmlns="http://www.w3.org/2000/svg">
<g clip-path="url(#clip0_3379_6270)">
<rect width="624" height="780" rx="16" fill="white"/>
<circle cx="312" cy="178" r="215" fill="#FFC312"/>
<circle cx="338" cy="174" r="154" fill="#F79F1F"/>
<circle cx="314" cy="221" r="105" fill="#EA2027"/>
<path d="M241.6 230.88H282.64V238.32H250.32V254.96H280.72V262.4H250.32V280.56H284V288H241.6V230.88ZM289.01 230.88H299.65L313.57 251.52L327.49 230.88H338.13L318.77 258.48L339.49 288H328.85L313.57 265.36L298.29 288H287.65L308.21 258.48L289.01 230.88ZM345.506 230.88H369.186C382.786 230.88 389.586 236.667 389.586 248.24C389.586 259.92 382.733 265.76 369.026 265.76H354.226V288H345.506V230.88ZM354.226 238.32V258.32H368.466C372.786 258.32 375.933 257.52 377.906 255.92C379.88 254.267 380.866 251.707 380.866 248.24C380.866 244.667 379.853 242.16 377.826 240.72C375.853 239.12 372.733 238.32 368.466 238.32H354.226Z" fill="white"/>
</g>
<defs>
<clipPath id="clip0_3379_6270">
<rect width="624" height="780" rx="16" fill="white"/>
</clipPath>
</defs>
</svg>
