<svg width="624" height="780" viewBox="0 0 624 780" fill="none" xmlns="http://www.w3.org/2000/svg">
<g clip-path="url(#clip0_3378_5875)">
<rect width="624" height="780" rx="16" fill="url(#paint0_linear_3378_5875)"/>
<circle cx="315" cy="188.5" r="225" fill="white" fill-opacity="0.5"/>
<circle cx="315" cy="188.5" r="142" fill="url(#paint1_linear_3378_5875)"/>
<path fill-rule="evenodd" clip-rule="evenodd" d="M205.596 258.329C205.596 258.329 202.627 255.401 195.222 250.702C187.817 246.004 183.253 244.152 183.253 244.152L188.606 228.901C188.606 228.901 195.383 230.037 201.293 233.386C207.202 236.735 212.528 240.858 212.528 240.858L205.596 258.329Z" fill="#FF8833" fill-opacity="0.8"/>
<path fill-rule="evenodd" clip-rule="evenodd" d="M147.911 185.045C147.911 185.045 151.754 184.682 159.494 182.226C167.235 179.769 171.265 177.634 171.265 177.634L178.896 190.509C178.896 190.509 174.057 194.639 168.164 196.838C162.271 199.036 156.177 200.36 156.177 200.36L147.911 185.045Z" fill="#FF8833" fill-opacity="0.9"/>
<path fill-rule="evenodd" clip-rule="evenodd" d="M145.874 143.337C145.874 143.337 144.115 141.602 139.727 138.818C135.338 136.034 132.634 134.936 132.634 134.936L135.806 125.899C135.806 125.899 139.822 126.572 143.324 128.557C146.826 130.541 149.982 132.984 149.982 132.984L145.874 143.337Z" fill="#FF8833" fill-opacity="0.8"/>
<path fill-rule="evenodd" clip-rule="evenodd" d="M413.874 103.337C413.874 103.337 412.115 101.602 407.727 98.8182C403.338 96.0339 400.634 94.9365 400.634 94.9365L403.806 85.8986C403.806 85.8986 407.822 86.572 411.324 88.5567C414.826 90.5414 417.982 92.9845 417.982 92.9845L413.874 103.337Z" fill="#FF8833" fill-opacity="0.8"/>
<path fill-rule="evenodd" clip-rule="evenodd" d="M471.874 182.337C471.874 182.337 470.115 180.602 465.727 177.818C461.338 175.034 458.634 173.936 458.634 173.936L461.806 164.899C461.806 164.899 465.822 165.572 469.324 167.557C472.826 169.541 475.982 171.984 475.982 171.984L471.874 182.337Z" fill="#FF8833" fill-opacity="0.8"/>
<path opacity="0.4" fill-rule="evenodd" clip-rule="evenodd" d="M77.8744 195.337C77.8744 195.337 76.1149 193.602 71.7265 190.818C67.3382 188.034 64.6335 186.936 64.6335 186.936L67.8061 177.899C67.8061 177.899 71.8219 178.572 75.3239 180.557C78.8259 182.541 81.9818 184.984 81.9818 184.984L77.8744 195.337Z" fill="url(#paint2_linear_3378_5875)" fill-opacity="0.9"/>
<path opacity="0.4" fill-rule="evenodd" clip-rule="evenodd" d="M83.8248 98.5889C83.8248 98.5889 80.457 98.1397 73.3341 98.7135C66.2111 99.2874 62.333 100.32 62.333 100.32L58.338 87.7704C58.338 87.7704 63.3052 85.1869 68.7931 84.4684C74.2811 83.7499 79.7682 83.8213 79.7682 83.8213L83.8248 98.5889Z" fill="url(#paint3_linear_3378_5875)" fill-opacity="0.6"/>
<path opacity="0.4" fill-rule="evenodd" clip-rule="evenodd" d="M509.632 109.243C509.632 109.243 512.907 108.34 519.24 105.029C525.572 101.717 528.738 99.2512 528.738 99.2512L537.319 109.243C537.319 109.243 533.757 113.562 528.986 116.367C524.215 119.173 519.136 121.251 519.136 121.251L509.632 109.243Z" fill="#FF8833"/>
<path fill-rule="evenodd" clip-rule="evenodd" d="M219.614 99.4587C219.614 99.4587 219.208 96.7071 217.151 91.2315C215.093 85.7559 213.407 82.9372 213.407 82.9372L222.377 76.9609C222.377 76.9609 225.529 80.2866 227.331 84.4429C229.133 88.5993 230.314 92.9334 230.314 92.9334L219.614 99.4587Z" fill="url(#paint4_linear_3378_5875)" fill-opacity="0.6"/>
<path fill-rule="evenodd" clip-rule="evenodd" d="M429.292 131.179C429.292 131.179 430.206 135.157 434.034 142.99C437.862 150.824 440.842 154.815 440.842 154.815L426.99 164.099C426.99 164.099 421.607 159.466 418.314 153.535C415.021 147.605 412.711 141.375 412.711 141.375L429.292 131.179Z" fill="url(#paint5_linear_3378_5875)" fill-opacity="0.3"/>
<path fill-rule="evenodd" clip-rule="evenodd" d="M505.463 168.249C505.463 168.249 508.085 167.326 513.064 164.261C518.044 161.197 520.487 159.004 520.487 159.004L528.061 166.669C528.061 166.669 525.4 170.397 521.666 172.959C517.932 175.522 513.906 177.508 513.906 177.508L505.463 168.249Z" fill="#FF8833" fill-opacity="0.9"/>
<path fill-rule="evenodd" clip-rule="evenodd" d="M476.417 252.824C476.417 252.824 478.975 249.503 482.756 241.537C486.537 233.572 487.825 228.791 487.825 228.791L503.7 232.265C503.7 232.265 503.396 239.166 500.778 245.473C498.16 251.781 494.699 257.6 494.699 257.6L476.417 252.824Z" fill="#FF8833" fill-opacity="0.9"/>
<path fill-rule="evenodd" clip-rule="evenodd" d="M464.181 85.2149C464.181 85.2149 464.618 82.9032 464.44 77.9133C464.262 72.9233 463.205 70.218 463.205 70.218L472.25 67.6124C472.25 67.6124 474.215 71.1801 474.885 75.0988C475.554 79.0174 475.584 83.3681 475.584 83.3681L464.181 85.2149Z" fill="#FF8833" fill-opacity="0.9"/>
<path fill-rule="evenodd" clip-rule="evenodd" d="M101.901 260.166C101.901 260.166 105.104 260.034 111.675 258.26C118.246 256.485 121.727 254.812 121.727 254.812L127.129 266.456C127.129 266.456 122.838 269.837 117.812 271.476C112.786 273.114 107.656 273.977 107.656 273.977L101.901 260.166Z" fill="#FF8833" fill-opacity="0.9"/>
<path fill-rule="evenodd" clip-rule="evenodd" d="M140.901 303.166C140.901 303.166 144.104 303.034 150.675 301.26C157.246 299.485 160.727 297.812 160.727 297.812L166.129 309.456C166.129 309.456 161.838 312.837 156.812 314.476C151.786 316.114 146.656 316.977 146.656 316.977L140.901 303.166Z" fill="#FF8833" fill-opacity="0.9"/>
<path fill-rule="evenodd" clip-rule="evenodd" d="M484.871 304.514C484.871 304.514 484.612 307.709 485.572 314.448C486.532 321.186 487.769 324.845 487.769 324.845L475.554 328.787C475.554 328.787 472.721 324.116 471.707 318.928C470.693 313.74 470.462 308.543 470.462 308.543L484.871 304.514Z" fill="#FF8833" fill-opacity="0.9"/>
<path fill-rule="evenodd" clip-rule="evenodd" d="M414.765 276.6C414.765 276.6 417.961 276.357 424.466 274.354C430.971 272.351 434.392 270.557 434.392 270.557L440.197 282.006C440.197 282.006 436.026 285.535 431.061 287.348C426.095 289.16 420.998 290.202 420.998 290.202L414.765 276.6Z" fill="#FF8833" fill-opacity="0.6"/>
<path fill-rule="evenodd" clip-rule="evenodd" d="M332.093 42.1042C332.093 42.1042 333.007 46.0817 336.835 53.9152C340.663 61.7488 343.643 65.7401 343.643 65.7401L329.791 75.0238C329.791 75.0238 324.408 70.3907 321.115 64.4602C317.822 58.5298 315.512 52.3001 315.512 52.3001L332.093 42.1042Z" fill="#FF8833"/>
<g clip-path="url(#clip1_3378_5875)">
<path d="M411.058 211.707C397.969 264.207 344.792 296.155 292.286 283.066C239.803 269.977 207.852 216.8 220.945 164.302C234.028 111.796 287.202 79.8417 339.693 92.9308C392.197 106.02 424.148 159.203 411.058 211.707Z" fill="#F7931A"/>
<g clip-path="url(#clip2_3378_5875)">
<path d="M352.745 164.872C353.611 173.627 350.461 179.832 343.293 183.488C348.921 184.834 353.13 187.312 355.92 190.92C358.709 194.527 359.792 199.674 359.166 206.36C358.83 209.776 358.048 212.782 356.822 215.379C355.595 217.977 354.044 220.118 352.167 221.801C350.291 223.485 347.959 224.892 345.169 226.022C342.379 227.153 339.456 227.982 336.402 228.511C333.347 229.04 329.848 229.401 325.904 229.593V247.992H314.792V229.882C310.944 229.882 308.01 229.858 305.989 229.809V247.992H294.879V229.593C294.013 229.593 292.714 229.581 290.983 229.556C289.251 229.533 287.928 229.52 287.014 229.52H272.583L274.82 216.316H282.83C285.235 216.316 286.63 215.09 287.014 212.636V162.852C286.389 159.581 284.249 157.946 280.593 157.946H272.583V146.112L287.88 146.185C290.959 146.185 293.292 146.161 294.879 146.112V127.93H305.991V145.752C309.935 145.655 312.869 145.607 314.793 145.607V127.93H325.905V146.112C329.705 146.449 333.072 146.99 336.007 147.736C338.941 148.481 341.659 149.563 344.16 150.982C346.661 152.401 348.645 154.277 350.113 156.61C351.579 158.943 352.457 161.697 352.745 164.872ZM337.232 204.195C337.232 202.463 336.872 200.924 336.15 199.577C335.428 198.23 334.538 197.123 333.481 196.258C332.422 195.392 331.039 194.658 329.332 194.057C327.625 193.456 326.049 193.011 324.606 192.722C323.163 192.434 321.384 192.217 319.267 192.073C317.15 191.929 315.491 191.857 314.288 191.857C313.086 191.857 311.534 191.88 309.634 191.929C307.734 191.977 306.592 192.001 306.207 192.001V216.389C306.592 216.389 307.482 216.401 308.877 216.425C310.272 216.449 311.426 216.461 312.34 216.461C313.254 216.461 314.528 216.425 316.164 216.353C317.8 216.282 319.206 216.185 320.385 216.065C321.563 215.945 322.934 215.74 324.498 215.452C326.061 215.163 327.396 214.826 328.502 214.441C329.608 214.056 330.751 213.552 331.929 212.926C333.108 212.301 334.058 211.579 334.779 210.761C335.501 209.944 336.09 208.982 336.547 207.875C337.003 206.769 337.232 205.542 337.232 204.195ZM332.109 169.85C332.109 168.263 331.809 166.855 331.208 165.629C330.606 164.403 329.873 163.392 329.007 162.598C328.141 161.804 326.987 161.131 325.544 160.578C324.101 160.025 322.778 159.628 321.576 159.387C320.373 159.147 318.894 158.954 317.138 158.81C315.382 158.666 313.987 158.605 312.953 158.629C311.919 158.653 310.62 158.677 309.057 158.702C307.494 158.726 306.544 158.738 306.207 158.738V180.889C306.448 180.889 307.278 180.901 308.696 180.925C310.115 180.949 311.234 180.949 312.052 180.925C312.869 180.901 314.072 180.852 315.659 180.781C317.246 180.708 318.569 180.576 319.627 180.384C320.685 180.191 321.924 179.927 323.343 179.59C324.762 179.253 325.929 178.808 326.843 178.255C327.757 177.701 328.646 177.052 329.512 176.307C330.378 175.562 331.027 174.635 331.46 173.529C331.892 172.423 332.109 171.197 332.109 169.85Z" fill="white"/>
</g>
</g>
</g>
<defs>
<linearGradient id="paint0_linear_3378_5875" x1="312" y1="792.5" x2="312" y2="-5.21685e-05" gradientUnits="userSpaceOnUse">
<stop stop-color="#FFC107"/>
<stop offset="1" stop-color="#FFA000"/>
</linearGradient>
<linearGradient id="paint1_linear_3378_5875" x1="315" y1="351.5" x2="332" y2="35.5" gradientUnits="userSpaceOnUse">
<stop stop-color="#FFB636"/>
<stop offset="1" stop-color="#FFC107"/>
</linearGradient>
<linearGradient id="paint2_linear_3378_5875" x1="82.9227" y1="188.803" x2="62.0284" y2="183.253" gradientUnits="userSpaceOnUse">
<stop stop-color="#DD2C00"/>
<stop offset="1" stop-color="#F44336"/>
</linearGradient>
<linearGradient id="paint3_linear_3378_5875" x1="83.9615" y1="87.2362" x2="56.4243" y2="98.4315" gradientUnits="userSpaceOnUse">
<stop stop-color="#DD2C00"/>
<stop offset="1" stop-color="#F44336"/>
</linearGradient>
<linearGradient id="paint4_linear_3378_5875" x1="228.574" y1="97.0039" x2="213.549" y2="77.8699" gradientUnits="userSpaceOnUse">
<stop stop-color="#DD2C00"/>
<stop offset="1" stop-color="#F44336"/>
</linearGradient>
<linearGradient id="paint5_linear_3378_5875" x1="415.121" y1="135.338" x2="438.131" y2="164.534" gradientUnits="userSpaceOnUse">
<stop stop-color="#DD2C00"/>
<stop offset="1" stop-color="#F44336"/>
</linearGradient>
<clipPath id="clip0_3378_5875">
<rect width="624" height="780" rx="16" fill="white"/>
</clipPath>
<clipPath id="clip1_3378_5875">
<rect width="196" height="196" fill="white" transform="translate(218 90)"/>
</clipPath>
<clipPath id="clip2_3378_5875">
<rect width="86.7888" height="120.187" fill="white" transform="translate(272.566 127.867)"/>
</clipPath>
</defs>
</svg>
