<svg width="624" height="784" viewBox="0 0 624 784" fill="none" xmlns="http://www.w3.org/2000/svg">
<path fill-rule="evenodd" clip-rule="evenodd" d="M0 20C0 11.1634 7.16345 4 16 4H608C616.837 4 624 11.1634 624 20V768C624 776.837 616.837 784 608 784H16C7.16344 784 0 776.837 0 768V20Z" fill="url(#paint0_linear_3381_6518)"/>
<mask id="mask0_3381_6518" style="mask-type:luminance" maskUnits="userSpaceOnUse" x="0" y="4" width="621" height="717">
<path fill-rule="evenodd" clip-rule="evenodd" d="M0 20C0 11.1634 7.16344 4 16 4H605C613.837 4 621 11.1634 621 20V705C621 713.837 613.837 721 605 721H16C7.16344 721 0 713.837 0 705V20Z" fill="white"/>
</mask>
<g mask="url(#mask0_3381_6518)">
<circle cx="311" cy="163" r="225" fill="url(#paint1_linear_3381_6518)"/>
<circle cx="310" cy="161" r="142" fill="#FFF3FB"/>
</g>
<g style="mix-blend-mode:overlay">
<path fill-rule="evenodd" clip-rule="evenodd" d="M328.291 0.664281C328.291 0.664281 329.206 4.64174 333.033 12.4753C336.861 20.3088 339.841 24.3001 339.841 24.3001L325.989 33.5839C325.989 33.5839 320.606 28.9507 317.313 23.0203C314.021 17.0898 311.71 10.8601 311.71 10.8601L328.291 0.664281Z" fill="#F86DCD"/>
</g>
<path fill-rule="evenodd" clip-rule="evenodd" d="M201.596 232.829C201.596 232.829 198.627 229.901 191.221 225.203C183.816 220.504 179.252 218.652 179.252 218.652L184.606 203.401C184.606 203.401 191.382 204.537 197.292 207.887C203.202 211.236 208.527 215.358 208.527 215.358L201.596 232.829Z" fill="#FA6BFF" fill-opacity="0.35"/>
<path fill-rule="evenodd" clip-rule="evenodd" d="M128.37 167.181C128.37 167.181 132.213 166.818 139.953 164.362C147.694 161.905 151.724 159.77 151.724 159.77L159.355 172.645C159.355 172.645 154.516 176.775 148.623 178.974C142.73 181.172 136.636 182.496 136.636 182.496L128.37 167.181Z" fill="url(#paint2_linear_3381_6518)"/>
<path fill-rule="evenodd" clip-rule="evenodd" d="M141.874 117.837C141.874 117.837 140.114 116.102 135.726 113.318C131.338 110.534 128.633 109.436 128.633 109.436L131.806 100.399C131.806 100.399 135.821 101.072 139.323 103.057C142.825 105.041 145.981 107.484 145.981 107.484L141.874 117.837Z" fill="url(#paint3_linear_3381_6518)"/>
<path fill-rule="evenodd" clip-rule="evenodd" d="M409.874 77.8375C409.874 77.8375 408.115 76.1025 403.726 73.3183C399.338 70.534 396.633 69.4366 396.633 69.4366L399.806 60.3987C399.806 60.3987 403.822 61.0721 407.324 63.0568C410.826 65.0415 413.981 67.4846 413.981 67.4846L409.874 77.8375Z" fill="url(#paint4_linear_3381_6518)"/>
<path fill-rule="evenodd" clip-rule="evenodd" d="M471.361 148.805C471.361 148.805 469.602 147.071 465.213 144.286C460.825 141.502 458.12 140.405 458.12 140.405L461.293 131.367C461.293 131.367 465.309 132.04 468.811 134.025C472.313 136.009 475.469 138.453 475.469 138.453L471.361 148.805Z" fill="url(#paint5_linear_3381_6518)"/>
<path fill-rule="evenodd" clip-rule="evenodd" d="M73.8739 169.837C73.8739 169.837 72.1144 168.102 67.7261 165.318C63.3377 162.534 60.633 161.436 60.633 161.436L63.8056 152.399C63.8056 152.399 67.8214 153.072 71.3234 155.057C74.8254 157.041 77.9813 159.484 77.9813 159.484L73.8739 169.837Z" fill="url(#paint6_linear_3381_6518)"/>
<path fill-rule="evenodd" clip-rule="evenodd" d="M79.8242 73.0889C79.8242 73.0889 76.4565 72.6397 69.3336 73.2135C62.2106 73.7874 58.3325 74.8204 58.3325 74.8204L54.3375 62.2704C54.3375 62.2704 59.3047 59.6869 64.7926 58.9684C70.2805 58.2499 75.7677 58.3213 75.7677 58.3213L79.8242 73.0889Z" fill="url(#paint7_linear_3381_6518)"/>
<path opacity="0.4" fill-rule="evenodd" clip-rule="evenodd" d="M505.631 83.7426C505.631 83.7426 508.907 82.8402 515.239 79.5288C521.572 76.2174 524.738 73.7512 524.738 73.7512L533.319 83.7426C533.319 83.7426 529.756 88.0616 524.985 90.8673C520.214 93.673 515.135 95.7512 515.135 95.7512L505.631 83.7426Z" fill="#FA6BFF" fill-opacity="0.35"/>
<path fill-rule="evenodd" clip-rule="evenodd" d="M425.291 105.679C425.291 105.679 426.206 109.656 430.033 117.49C433.861 125.323 436.841 129.315 436.841 129.315L422.989 138.599C422.989 138.599 417.606 133.965 414.313 128.035C411.021 122.104 408.71 115.875 408.71 115.875L425.291 105.679Z" fill="url(#paint8_linear_3381_6518)"/>
<path fill-rule="evenodd" clip-rule="evenodd" d="M271.237 73.3537C271.237 73.3537 269.773 77.0605 269.831 82.4561C269.888 87.8517 270.586 89.9011 270.586 89.9011L261.746 91.9818C261.746 91.9818 260.061 88.1042 259.809 83.9326C259.557 79.7609 259.9 75.6315 259.9 75.6315L271.237 73.3537Z" fill="#FA6BFF" fill-opacity="0.35"/>
<path fill-rule="evenodd" clip-rule="evenodd" d="M501.463 142.749C501.463 142.749 504.085 141.825 509.064 138.761C514.044 135.697 516.487 133.504 516.487 133.504L524.061 141.169C524.061 141.169 521.4 144.897 517.666 147.459C513.932 150.022 509.905 152.008 509.905 152.008L501.463 142.749Z" fill="#FA6BFF" fill-opacity="0.35"/>
<path fill-rule="evenodd" clip-rule="evenodd" d="M472.416 227.324C472.416 227.324 474.974 224.003 478.755 216.037C482.536 208.072 483.825 203.291 483.825 203.291L499.699 206.765C499.699 206.765 499.395 213.666 496.778 219.973C494.16 226.281 490.698 232.1 490.698 232.1L472.416 227.324Z" fill="url(#paint9_linear_3381_6518)"/>
<path fill-rule="evenodd" clip-rule="evenodd" d="M97.9006 234.666C97.9006 234.666 101.103 234.534 107.674 232.76C114.245 230.985 117.727 229.312 117.727 229.312L123.128 240.956C123.128 240.956 118.837 244.337 113.811 245.976C108.786 247.614 103.655 248.477 103.655 248.477L97.9006 234.666Z" fill="url(#paint10_linear_3381_6518)"/>
<path fill-rule="evenodd" clip-rule="evenodd" d="M136.901 277.666C136.901 277.666 140.103 277.535 146.674 275.76C153.245 273.986 156.727 272.312 156.727 272.312L162.128 283.956C162.128 283.956 157.837 287.337 152.811 288.976C147.786 290.614 142.655 291.477 142.655 291.477L136.901 277.666Z" fill="url(#paint11_linear_3381_6518)"/>
<path fill-rule="evenodd" clip-rule="evenodd" d="M480.871 279.015C480.871 279.015 480.611 282.21 481.572 288.948C482.532 295.686 483.769 299.346 483.769 299.346L471.553 303.288C471.553 303.288 468.72 298.617 467.706 293.429C466.693 288.241 466.462 283.043 466.462 283.043L480.871 279.015Z" fill="url(#paint12_linear_3381_6518)"/>
<path fill-rule="evenodd" clip-rule="evenodd" d="M435.497 257.773C435.497 257.773 438.693 257.53 445.198 255.527C451.703 253.524 455.124 251.73 455.124 251.73L460.928 263.179C460.928 263.179 456.758 266.708 451.792 268.521C446.827 270.334 441.73 271.375 441.73 271.375L435.497 257.773Z" fill="#F86DCD"/>
<path fill-rule="evenodd" clip-rule="evenodd" d="M181.114 55.4937C181.114 55.4937 180.708 52.7422 178.65 47.2665C176.593 41.7909 174.906 38.9723 174.906 38.9723L183.876 32.996C183.876 32.996 187.028 36.3216 188.831 40.478C190.633 44.6344 191.814 48.9685 191.814 48.9685L181.114 55.4937Z" fill="#F86DCD"/>
<path fill-rule="evenodd" clip-rule="evenodd" d="M419.361 32.8054C419.361 32.8054 417.602 31.0704 413.213 28.2862C408.825 25.5019 406.12 24.4045 406.12 24.4045L409.293 15.3666C409.293 15.3666 413.309 16.04 416.811 18.0247C420.313 20.0094 423.469 22.4525 423.469 22.4525L419.361 32.8054Z" fill="url(#paint13_linear_3381_6518)"/>
<path fill-rule="evenodd" clip-rule="evenodd" d="M259.571 6.11654C259.571 6.11654 258.107 9.82333 258.164 15.2189C258.221 20.6145 258.92 22.6639 258.92 22.6639L250.079 24.7446C250.079 24.7446 248.395 20.867 248.143 16.6954C247.891 12.5237 248.233 8.39427 248.233 8.39427L259.571 6.11654Z" fill="#FA6BFF" fill-opacity="0.35"/>
<path fill-rule="evenodd" clip-rule="evenodd" d="M476.798 43.6679C476.798 43.6679 480.619 42.0589 487.724 37.5776C494.828 33.0963 498.234 30.1466 498.234 30.1466L510.468 36.7408C510.468 36.7408 506.913 41.4106 501.616 45.0588C496.319 48.707 490.517 51.7958 490.517 51.7958L476.798 43.6679Z" fill="url(#paint14_linear_3381_6518)"/>
<path fill-rule="evenodd" clip-rule="evenodd" d="M445.841 73.724C445.841 73.724 446.278 71.4122 446.1 66.4223C445.922 61.4324 444.865 58.7271 444.865 58.7271L453.91 56.1214C453.91 56.1214 455.876 59.6891 456.545 63.6078C457.215 67.5265 457.244 71.8772 457.244 71.8772L445.841 73.724Z" fill="#F86DCD"/>
<circle cx="310" cy="161" r="142" fill="white"/>
<path d="M381.848 195.783L356.145 163.009C353.352 159.447 349.218 157.314 344.814 156.843C343.812 156.734 342.917 156.188 342.416 155.365C341.906 154.542 341.852 153.543 342.255 152.669C344.018 148.856 344.125 144.429 342.228 140.381L324.839 103.105C322.261 97.5697 316.435 94 310 94C303.565 94 297.739 97.5781 295.161 103.105L277.772 140.381C275.884 144.429 275.982 148.856 277.745 152.669C278.148 153.543 278.085 154.542 277.584 155.365C277.074 156.188 276.188 156.734 275.186 156.843C270.782 157.314 266.648 159.447 263.855 163.009L238.152 195.783C234.339 200.646 233.954 207.164 237.167 212.396C240.389 217.621 246.6 220.569 252.99 219.905L296.083 215.403C300.764 214.916 304.8 212.623 307.431 209.28C308.031 208.516 308.989 208.062 310 208.062C311.011 208.062 311.96 208.516 312.569 209.28C315.2 212.623 319.236 214.916 323.917 215.403L367.01 219.905C373.4 220.577 379.611 217.629 382.833 212.396C386.046 207.164 385.661 200.646 381.848 195.783ZM289.013 145.059L306.429 107.741C307.056 106.406 308.461 105.541 310.009 105.541C311.557 105.541 312.962 106.406 313.589 107.741L331.005 145.059C331.551 146.235 331.435 147.596 330.683 148.671C329.931 149.746 328.66 150.393 327.282 150.393H292.727C291.358 150.393 290.078 149.746 289.326 148.671C288.574 147.596 288.458 146.235 289.004 145.059H289.013ZM297.954 201.872C297.336 203.023 296.137 203.796 294.777 203.938L251.639 208.44C250.1 208.6 248.596 207.894 247.817 206.634C247.039 205.375 247.137 203.804 248.059 202.628L273.789 169.82C274.604 168.787 275.911 168.199 277.28 168.275C278.649 168.342 279.884 169.056 280.573 170.173L280.6 170.215L297.828 198.218L297.855 198.26C298.544 199.377 298.58 200.738 297.963 201.88L297.954 201.872ZM313.544 189.206C312.81 190.39 311.468 191.129 310 191.129C308.541 191.129 307.19 190.399 306.456 189.214L293.219 167.704C292.485 166.519 292.485 165.05 293.219 163.865C293.953 162.681 295.296 161.942 296.763 161.942H323.228C324.686 161.942 326.038 162.664 326.772 163.857C327.506 165.05 327.506 166.511 326.772 167.695L313.544 189.206ZM372.191 206.634C371.413 207.894 369.918 208.608 368.37 208.449L325.232 203.947C323.872 203.804 322.673 203.031 322.055 201.88C321.438 200.73 321.474 199.369 322.163 198.26L322.189 198.218L339.418 170.215L339.445 170.173C340.134 169.056 341.369 168.342 342.738 168.275C344.107 168.208 345.414 168.787 346.228 169.82L371.959 202.628C372.881 203.804 372.97 205.375 372.2 206.634H372.191Z" fill="#E81899"/>
<defs>
<linearGradient id="paint0_linear_3381_6518" x1="347.088" y1="1901.2" x2="-652.702" y2="1490.16" gradientUnits="userSpaceOnUse">
<stop stop-color="#E81899"/>
<stop offset="0.666667" stop-color="#322A5A"/>
<stop offset="1" stop-color="#0B101B"/>
</linearGradient>
<linearGradient id="paint1_linear_3381_6518" x1="523.004" y1="-338.017" x2="-155.406" y2="123.095" gradientUnits="userSpaceOnUse">
<stop stop-color="#5D08C8"/>
<stop offset="0.333333" stop-color="#9F00B8"/>
<stop offset="0.666667" stop-color="#CA00A8"/>
<stop offset="1" stop-color="#E81899"/>
</linearGradient>
<linearGradient id="paint2_linear_3381_6518" x1="141.668" y1="186.8" x2="127.819" y2="165.074" gradientUnits="userSpaceOnUse">
<stop stop-color="#FFA000"/>
<stop offset="0.275028" stop-color="#FF884D"/>
<stop offset="0.615028" stop-color="#FF48B5" stop-opacity="0.85"/>
<stop offset="1" stop-color="#FF48B5"/>
</linearGradient>
<linearGradient id="paint3_linear_3381_6518" x1="130.547" y1="112.751" x2="144.403" y2="104.751" gradientUnits="userSpaceOnUse">
<stop stop-color="#FF48B5"/>
<stop offset="0.384972" stop-color="#FF48B5" stop-opacity="0.85"/>
<stop offset="0.724972" stop-color="#FF884D"/>
<stop offset="1" stop-color="#FFA000"/>
</linearGradient>
<linearGradient id="paint4_linear_3381_6518" x1="398.547" y1="72.7513" x2="412.403" y2="64.7513" gradientUnits="userSpaceOnUse">
<stop stop-color="#FF48B5"/>
<stop offset="0.384972" stop-color="#FF48B5" stop-opacity="0.85"/>
<stop offset="0.724972" stop-color="#FF884D"/>
<stop offset="1" stop-color="#FFA000"/>
</linearGradient>
<linearGradient id="paint5_linear_3381_6518" x1="460.034" y1="143.719" x2="473.891" y2="135.719" gradientUnits="userSpaceOnUse">
<stop stop-color="#FF48B5"/>
<stop offset="0.384972" stop-color="#FF48B5" stop-opacity="0.85"/>
<stop offset="0.724972" stop-color="#FF884D"/>
<stop offset="1" stop-color="#FFA000"/>
</linearGradient>
<linearGradient id="paint6_linear_3381_6518" x1="78.0215" y1="155.247" x2="73.0672" y2="170.974" gradientUnits="userSpaceOnUse">
<stop stop-color="#FFA000"/>
<stop offset="0.275028" stop-color="#FF884D"/>
<stop offset="0.615028" stop-color="#FF48B5" stop-opacity="0.85"/>
<stop offset="1" stop-color="#FF48B5"/>
</linearGradient>
<linearGradient id="paint7_linear_3381_6518" x1="72.305" y1="53.6342" x2="79.879" y2="75.0045" gradientUnits="userSpaceOnUse">
<stop stop-color="#FFA000"/>
<stop offset="0.275028" stop-color="#FF884D"/>
<stop offset="0.615028" stop-color="#FF48B5" stop-opacity="0.85"/>
<stop offset="1" stop-color="#FF48B5"/>
</linearGradient>
<linearGradient id="paint8_linear_3381_6518" x1="404.399" y1="121.57" x2="425.756" y2="102.742" gradientUnits="userSpaceOnUse">
<stop stop-color="#FFA000"/>
<stop offset="0.275028" stop-color="#FF884D"/>
<stop offset="0.615028" stop-color="#FF48B5" stop-opacity="0.85"/>
<stop offset="1" stop-color="#FF48B5"/>
</linearGradient>
<linearGradient id="paint9_linear_3381_6518" x1="497.843" y1="231.291" x2="470.336" y2="226.201" gradientUnits="userSpaceOnUse">
<stop stop-color="#FFA000"/>
<stop offset="0.275028" stop-color="#FF884D"/>
<stop offset="0.615028" stop-color="#FF48B5" stop-opacity="0.85"/>
<stop offset="1" stop-color="#FF48B5"/>
</linearGradient>
<linearGradient id="paint10_linear_3381_6518" x1="107.512" y1="252.491" x2="96.4028" y2="233.491" gradientUnits="userSpaceOnUse">
<stop stop-color="#FFA000"/>
<stop offset="0.275028" stop-color="#FF884D"/>
<stop offset="0.615028" stop-color="#FF48B5" stop-opacity="0.85"/>
<stop offset="1" stop-color="#FF48B5"/>
</linearGradient>
<linearGradient id="paint11_linear_3381_6518" x1="146.512" y1="295.491" x2="135.403" y2="276.491" gradientUnits="userSpaceOnUse">
<stop stop-color="#FFA000"/>
<stop offset="0.275028" stop-color="#FF884D"/>
<stop offset="0.615028" stop-color="#FF48B5" stop-opacity="0.85"/>
<stop offset="1" stop-color="#FF48B5"/>
</linearGradient>
<linearGradient id="paint12_linear_3381_6518" x1="462.008" y1="286.382" x2="482.22" y2="277.671" gradientUnits="userSpaceOnUse">
<stop stop-color="#FFA000"/>
<stop offset="0.275028" stop-color="#FF884D"/>
<stop offset="0.615028" stop-color="#FF48B5" stop-opacity="0.85"/>
<stop offset="1" stop-color="#FF48B5"/>
</linearGradient>
<linearGradient id="paint13_linear_3381_6518" x1="408.034" y1="27.7192" x2="421.891" y2="19.7192" gradientUnits="userSpaceOnUse">
<stop stop-color="#FF48B5"/>
<stop offset="0.384972" stop-color="#FF48B5" stop-opacity="0.85"/>
<stop offset="0.724972" stop-color="#FF884D"/>
<stop offset="1" stop-color="#FFA000"/>
</linearGradient>
<linearGradient id="paint14_linear_3381_6518" x1="497.153" y1="53.1311" x2="480.927" y2="36.9238" gradientUnits="userSpaceOnUse">
<stop stop-color="#FFA000"/>
<stop offset="0.275028" stop-color="#FF884D"/>
<stop offset="0.615028" stop-color="#FF48B5" stop-opacity="0.85"/>
<stop offset="1" stop-color="#FF48B5"/>
</linearGradient>
</defs>
</svg>
