<svg width="624" height="780" viewBox="0 0 624 780" fill="none" xmlns="http://www.w3.org/2000/svg">
<path fill-rule="evenodd" clip-rule="evenodd" d="M0 16C0 7.16344 7.16344 0 16 0H608C616.837 0 624 7.16344 624 16V764C624 772.837 616.837 780 608 780H16C7.16344 780 0 772.837 0 764V16Z" fill="#627EEA"/>
<mask id="mask0_5694_2373" style="mask-type:luminance" maskUnits="userSpaceOnUse" x="0" y="0" width="621" height="717">
<path fill-rule="evenodd" clip-rule="evenodd" d="M0 16C0 7.16345 7.16344 0 16 0H605C613.837 0 621 7.16344 621 16V701C621 709.837 613.837 717 605 717H16C7.16344 717 0 709.837 0 701V16Z" fill="white"/>
</mask>
<g mask="url(#mask0_5694_2373)">
<circle cx="311" cy="159" r="225" fill="white" fill-opacity="0.25"/>
<circle cx="310" cy="157" r="142" fill="#627EEA"/>
<g clip-path="url(#clip0_5694_2373)">
<path d="M310.837 77V132.408L357.669 153.334L310.837 77Z" fill="white" fill-opacity="0.602"/>
<path d="M310.838 77L264 153.334L310.838 132.408V77Z" fill="white"/>
<path d="M310.837 189.24V226.889L357.7 162.055L310.837 189.24Z" fill="white" fill-opacity="0.602"/>
<path d="M310.838 226.889V189.234L264 162.055L310.838 226.889Z" fill="white"/>
<path d="M310.837 180.526L357.669 153.334L310.837 132.42V180.526Z" fill="white" fill-opacity="0.2"/>
<path d="M264 153.334L310.838 180.526V132.42L264 153.334Z" fill="white" fill-opacity="0.602"/>
</g>
</g>
<g style="mix-blend-mode:overlay">
<path fill-rule="evenodd" clip-rule="evenodd" d="M328.291 3.66428C328.291 3.66428 329.206 7.64174 333.033 15.4753C336.861 23.3088 339.841 27.3001 339.841 27.3001L325.989 36.5839C325.989 36.5839 320.606 31.9507 317.313 26.0203C314.021 20.0899 311.71 13.8601 311.71 13.8601L328.291 3.66428Z" fill="#627EEA"/>
</g>
<path fill-rule="evenodd" clip-rule="evenodd" d="M128.37 170.181C128.37 170.181 132.213 169.818 139.954 167.362C147.694 164.905 151.724 162.77 151.724 162.77L159.355 175.645C159.355 175.645 154.516 179.775 148.623 181.974C142.73 184.172 136.636 185.496 136.636 185.496L128.37 170.181Z" fill="white" fill-opacity="0.8"/>
<path fill-rule="evenodd" clip-rule="evenodd" d="M141.874 120.837C141.874 120.837 140.115 119.102 135.726 116.318C131.338 113.534 128.633 112.436 128.633 112.436L131.806 103.399C131.806 103.399 135.822 104.072 139.324 106.057C142.826 108.041 145.981 110.484 145.981 110.484L141.874 120.837Z" fill="#627EEA" fill-opacity="0.5"/>
<path fill-rule="evenodd" clip-rule="evenodd" d="M471.361 151.805C471.361 151.805 469.602 150.071 465.213 147.286C460.825 144.502 458.12 143.405 458.12 143.405L461.293 134.367C461.293 134.367 465.309 135.04 468.811 137.025C472.313 139.009 475.469 141.453 475.469 141.453L471.361 151.805Z" fill="#627EEA"/>
<path fill-rule="evenodd" clip-rule="evenodd" d="M73.874 172.837C73.874 172.837 72.1145 171.102 67.7262 168.318C63.3378 165.534 60.6332 164.436 60.6332 164.436L63.8057 155.399C63.8057 155.399 67.8216 156.072 71.3236 158.057C74.8256 160.041 77.9814 162.484 77.9814 162.484L73.874 172.837Z" fill="white" fill-opacity="0.8"/>
<path fill-rule="evenodd" clip-rule="evenodd" d="M79.8244 76.0889C79.8244 76.0889 76.4566 75.6397 69.3337 76.2135C62.2107 76.7874 58.3326 77.8204 58.3326 77.8204L54.3376 65.2704C54.3376 65.2704 59.3048 62.6869 64.7927 61.9684C70.2807 61.2499 75.7679 61.3213 75.7679 61.3213L79.8244 76.0889Z" fill="white" fill-opacity="0.5"/>
<path opacity="0.4" fill-rule="evenodd" clip-rule="evenodd" d="M505.631 86.7426C505.631 86.7426 508.906 85.8402 515.239 82.5288C521.571 79.2174 524.738 76.7512 524.738 76.7512L533.319 86.7426C533.319 86.7426 529.756 91.0616 524.985 93.8673C520.214 96.673 515.135 98.7512 515.135 98.7512L505.631 86.7426Z" fill="#627EEA" fill-opacity="0.5"/>
<path fill-rule="evenodd" clip-rule="evenodd" d="M501.462 145.749C501.462 145.749 504.084 144.825 509.064 141.761C514.043 138.697 516.487 136.504 516.487 136.504L524.061 144.169C524.061 144.169 521.399 147.897 517.665 150.459C513.932 153.022 509.905 155.008 509.905 155.008L501.462 145.749Z" fill="#627EEA" fill-opacity="0.3"/>
<path fill-rule="evenodd" clip-rule="evenodd" d="M484.932 228.657C484.932 228.657 487.58 225.475 494.079 220.036C500.578 214.596 504.542 212.245 504.542 212.245L500.59 198.294C500.59 198.294 494.769 200.239 489.598 204.195C484.428 208.152 479.724 212.777 479.724 212.777L484.932 228.657Z" fill="white" fill-opacity="0.8"/>
<path fill-rule="evenodd" clip-rule="evenodd" d="M97.9007 237.666C97.9007 237.666 101.104 237.534 107.674 235.76C114.245 233.985 117.727 232.312 117.727 232.312L123.128 243.956C123.128 243.956 118.837 247.337 113.812 248.976C108.786 250.614 103.655 251.477 103.655 251.477L97.9007 237.666Z" fill="#627EEA" fill-opacity="0.5"/>
<path fill-rule="evenodd" clip-rule="evenodd" d="M152.084 297.522C152.084 297.522 150.326 294.841 145.43 290.114C140.533 285.386 137.309 283.258 137.309 283.258L144.528 272.644C144.528 272.644 149.633 274.59 153.619 278.062C157.606 281.533 160.98 285.492 160.98 285.492L152.084 297.522Z" fill="white" fill-opacity="0.8"/>
<path fill-rule="evenodd" clip-rule="evenodd" d="M480.871 298.015C480.871 298.015 480.611 301.21 481.572 307.948C482.532 314.686 483.769 318.346 483.769 318.346L471.553 322.288C471.553 322.288 468.72 317.617 467.706 312.429C466.693 307.241 466.462 302.043 466.462 302.043L480.871 298.015Z" fill="white" fill-opacity="0.8"/>
<path fill-rule="evenodd" clip-rule="evenodd" d="M435.497 260.773C435.497 260.773 438.693 260.53 445.198 258.527C451.703 256.524 455.124 254.73 455.124 254.73L460.929 266.179C460.929 266.179 456.758 269.708 451.793 271.521C446.827 273.334 441.73 274.375 441.73 274.375L435.497 260.773Z" fill="white" fill-opacity="0.8"/>
<path fill-rule="evenodd" clip-rule="evenodd" d="M181.114 58.4937C181.114 58.4937 180.708 55.7422 178.65 50.2665C176.593 44.7909 174.906 41.9723 174.906 41.9723L183.876 35.996C183.876 35.996 187.028 39.3216 188.831 43.478C190.633 47.6344 191.814 51.9685 191.814 51.9685L181.114 58.4937Z" fill="white" fill-opacity="0.8"/>
<path fill-rule="evenodd" clip-rule="evenodd" d="M419.361 35.8054C419.361 35.8054 417.602 34.0704 413.213 31.2862C408.825 28.5019 406.12 27.4045 406.12 27.4045L409.293 18.3666C409.293 18.3666 413.309 19.04 416.811 21.0247C420.313 23.0094 423.469 25.4525 423.469 25.4525L419.361 35.8054Z" fill="white" fill-opacity="0.8"/>
<path fill-rule="evenodd" clip-rule="evenodd" d="M259.571 9.11654C259.571 9.11654 258.107 12.8233 258.164 18.2189C258.221 23.6145 258.92 25.6639 258.92 25.6639L250.079 27.7446C250.079 27.7446 248.395 23.867 248.143 19.6954C247.891 15.5237 248.233 11.3943 248.233 11.3943L259.571 9.11654Z" fill="white" fill-opacity="0.8"/>
<path fill-rule="evenodd" clip-rule="evenodd" d="M476.798 46.6679C476.798 46.6679 480.619 45.0589 487.724 40.5776C494.828 36.0963 498.234 33.1466 498.234 33.1466L510.468 39.7408C510.468 39.7408 506.913 44.4106 501.616 48.0588C496.319 51.707 490.517 54.7958 490.517 54.7958L476.798 46.6679Z" fill="white" fill-opacity="0.8"/>
<path fill-rule="evenodd" clip-rule="evenodd" d="M445.841 76.724C445.841 76.724 446.278 74.4122 446.1 69.4223C445.922 64.4324 444.865 61.7271 444.865 61.7271L453.91 59.1214C453.91 59.1214 455.876 62.6891 456.545 66.6078C457.215 70.5265 457.244 74.8772 457.244 74.8772L445.841 76.724Z" fill="white" fill-opacity="0.8"/>
<path fill-rule="evenodd" clip-rule="evenodd" d="M221.764 310.804C221.764 310.804 218.907 312.256 213.67 316.605C208.434 320.953 205.965 323.923 205.965 323.923L196.207 315.584C196.207 315.584 198.702 310.723 202.59 307.142C206.478 303.56 210.784 300.641 210.784 300.641L221.764 310.804Z" fill="white" fill-opacity="0.8"/>
<defs>
<clipPath id="clip0_5694_2373">
<rect width="93.71" height="150" fill="white" transform="translate(264 77)"/>
</clipPath>
</defs>
</svg>
