<svg width="624" height="780" viewBox="0 0 624 780" fill="none" xmlns="http://www.w3.org/2000/svg">
<g clip-path="url(#clip0_3378_5844)">
<rect width="624" height="780" rx="16" fill="#7B61FF"/>
<rect width="485.566" height="450" transform="translate(54.4341 -36.5)" fill="#7B61FF"/>
<circle cx="315" cy="188.5" r="225" fill="white" fill-opacity="0.2"/>
<circle cx="315" cy="188.5" r="142" fill="#7B61FF"/>
<g style="mix-blend-mode:overlay">
<path fill-rule="evenodd" clip-rule="evenodd" d="M332.292 42.1794C332.292 42.1794 333.206 46.1569 337.034 53.9904C340.862 61.824 343.842 65.8152 343.842 65.8152L329.99 75.099C329.99 75.099 324.607 70.4659 321.314 64.5354C318.021 58.605 315.711 52.3753 315.711 52.3753L332.292 42.1794Z" fill="#FFC107"/>
</g>
<path fill-rule="evenodd" clip-rule="evenodd" d="M205.596 258.329C205.596 258.329 202.627 255.401 195.222 250.702C187.817 246.004 183.252 244.152 183.252 244.152L188.606 228.901C188.606 228.901 195.383 230.037 201.293 233.386C207.202 236.735 212.528 240.858 212.528 240.858L205.596 258.329Z" fill="#FFC107" fill-opacity="0.8"/>
<path fill-rule="evenodd" clip-rule="evenodd" d="M147.911 185.045C147.911 185.045 151.754 184.682 159.494 182.226C167.235 179.769 171.265 177.634 171.265 177.634L178.896 190.509C178.896 190.509 174.057 194.639 168.164 196.838C162.271 199.036 156.177 200.36 156.177 200.36L147.911 185.045Z" fill="#FFC107"/>
<path fill-rule="evenodd" clip-rule="evenodd" d="M145.874 143.337C145.874 143.337 144.115 141.602 139.727 138.818C135.338 136.034 132.634 134.936 132.634 134.936L135.806 125.899C135.806 125.899 139.822 126.572 143.324 128.557C146.826 130.541 149.982 132.984 149.982 132.984L145.874 143.337Z" fill="#FFC107" fill-opacity="0.8"/>
<path fill-rule="evenodd" clip-rule="evenodd" d="M413.874 103.337C413.874 103.337 412.115 101.602 407.727 98.8182C403.338 96.0339 400.634 94.9365 400.634 94.9365L403.806 85.8986C403.806 85.8986 407.822 86.572 411.324 88.5567C414.826 90.5414 417.982 92.9845 417.982 92.9845L413.874 103.337Z" fill="#FFC107" fill-opacity="0.8"/>
<path fill-rule="evenodd" clip-rule="evenodd" d="M471.874 182.337C471.874 182.337 470.115 180.602 465.727 177.818C461.338 175.034 458.634 173.936 458.634 173.936L461.806 164.899C461.806 164.899 465.822 165.572 469.324 167.557C472.826 169.541 475.982 171.984 475.982 171.984L471.874 182.337Z" fill="#FFC107" fill-opacity="0.8"/>
<path opacity="0.4" fill-rule="evenodd" clip-rule="evenodd" d="M77.8744 195.337C77.8744 195.337 76.1149 193.602 71.7265 190.818C67.3382 188.034 64.6335 186.936 64.6335 186.936L67.8061 177.899C67.8061 177.899 71.8219 178.572 75.3239 180.557C78.8259 182.541 81.9818 184.984 81.9818 184.984L77.8744 195.337Z" fill="#FFC107"/>
<path opacity="0.4" fill-rule="evenodd" clip-rule="evenodd" d="M83.8247 98.5889C83.8247 98.5889 80.457 98.1397 73.334 98.7135C66.2111 99.2874 62.333 100.32 62.333 100.32L58.338 87.7704C58.338 87.7704 63.3051 85.1869 68.7931 84.4684C74.281 83.7499 79.7682 83.8213 79.7682 83.8213L83.8247 98.5889Z" fill="#FFA000"/>
<path opacity="0.4" fill-rule="evenodd" clip-rule="evenodd" d="M509.632 109.243C509.632 109.243 512.907 108.34 519.24 105.029C525.572 101.717 528.738 99.2512 528.738 99.2512L537.319 109.243C537.319 109.243 533.757 113.562 528.986 116.367C524.215 119.173 519.136 121.251 519.136 121.251L509.632 109.243Z" fill="#FFC107" fill-opacity="0.8"/>
<path fill-rule="evenodd" clip-rule="evenodd" d="M219.614 99.4587C219.614 99.4587 219.208 96.7071 217.151 91.2315C215.093 85.7559 213.407 82.9372 213.407 82.9372L222.377 76.9609C222.377 76.9609 225.529 80.2866 227.331 84.4429C229.133 88.5993 230.314 92.9334 230.314 92.9334L219.614 99.4587Z" fill="#FFA000"/>
<path fill-rule="evenodd" clip-rule="evenodd" d="M429.292 131.179C429.292 131.179 430.206 135.157 434.034 142.99C437.862 150.824 440.842 154.815 440.842 154.815L426.99 164.099C426.99 164.099 421.607 159.466 418.314 153.535C415.021 147.605 412.711 141.375 412.711 141.375L429.292 131.179Z" fill="#FFC107"/>
<path fill-rule="evenodd" clip-rule="evenodd" d="M505.463 168.249C505.463 168.249 508.085 167.326 513.065 164.261C518.044 161.197 520.488 159.004 520.488 159.004L528.062 166.669C528.062 166.669 525.4 170.397 521.666 172.959C517.932 175.522 513.906 177.508 513.906 177.508L505.463 168.249Z" fill="#FFC107"/>
<path fill-rule="evenodd" clip-rule="evenodd" d="M476.417 252.824C476.417 252.824 478.975 249.503 482.756 241.537C486.537 233.572 487.825 228.791 487.825 228.791L503.7 232.265C503.7 232.265 503.396 239.166 500.778 245.473C498.16 251.781 494.699 257.6 494.699 257.6L476.417 252.824Z" fill="#FFC107"/>
<path fill-rule="evenodd" clip-rule="evenodd" d="M464.181 85.2149C464.181 85.2149 464.618 82.9032 464.44 77.9133C464.262 72.9233 463.205 70.218 463.205 70.218L472.25 67.6124C472.25 67.6124 474.215 71.1801 474.885 75.0988C475.554 79.0174 475.584 83.3681 475.584 83.3681L464.181 85.2149Z" fill="#FFC107"/>
<path fill-rule="evenodd" clip-rule="evenodd" d="M101.901 260.166C101.901 260.166 105.104 260.034 111.675 258.26C118.246 256.485 121.727 254.812 121.727 254.812L127.129 266.456C127.129 266.456 122.838 269.837 117.812 271.476C112.786 273.114 107.656 273.977 107.656 273.977L101.901 260.166Z" fill="#FFC107"/>
<path fill-rule="evenodd" clip-rule="evenodd" d="M140.901 303.166C140.901 303.166 144.104 303.034 150.675 301.26C157.246 299.485 160.727 297.812 160.727 297.812L166.129 309.456C166.129 309.456 161.838 312.837 156.812 314.476C151.786 316.114 146.656 316.977 146.656 316.977L140.901 303.166Z" fill="#FFC107"/>
<path fill-rule="evenodd" clip-rule="evenodd" d="M484.871 304.514C484.871 304.514 484.612 307.709 485.572 314.448C486.532 321.186 487.769 324.845 487.769 324.845L475.554 328.787C475.554 328.787 472.721 324.116 471.707 318.928C470.693 313.74 470.462 308.543 470.462 308.543L484.871 304.514Z" fill="#FF8833"/>
<path fill-rule="evenodd" clip-rule="evenodd" d="M414.765 276.6C414.765 276.6 417.961 276.357 424.466 274.354C430.971 272.351 434.392 270.557 434.392 270.557L440.197 282.006C440.197 282.006 436.026 285.535 431.061 287.348C426.095 289.16 420.998 290.202 420.998 290.202L414.765 276.6Z" fill="#FF8833" fill-opacity="0.5"/>
<g clip-path="url(#clip1_3378_5844)">
<path d="M411.058 209.707C397.969 262.207 344.792 294.155 292.286 281.066C239.803 267.977 207.852 214.8 220.945 162.302C234.028 109.796 287.202 77.8417 339.693 90.9308C392.197 104.02 424.148 157.203 411.058 209.707Z" fill="#F7931A"/>
<g clip-path="url(#clip2_3378_5844)">
<path d="M352.745 162.872C353.611 171.627 350.461 177.832 343.293 181.488C348.921 182.834 353.13 185.312 355.92 188.92C358.709 192.527 359.792 197.674 359.166 204.36C358.83 207.776 358.048 210.782 356.822 213.379C355.595 215.977 354.044 218.118 352.168 219.801C350.291 221.485 347.959 222.892 345.169 224.022C342.379 225.153 339.456 225.982 336.402 226.511C333.347 227.04 329.848 227.401 325.904 227.593V245.992H314.792V227.882C310.944 227.882 308.01 227.858 305.989 227.809V245.992H294.879V227.593C294.013 227.593 292.714 227.581 290.983 227.556C289.251 227.533 287.928 227.52 287.014 227.52H272.583L274.82 214.316H282.83C285.235 214.316 286.63 213.09 287.014 210.636V160.852C286.389 157.581 284.249 155.946 280.593 155.946H272.583V144.112L287.88 144.185C290.959 144.185 293.292 144.161 294.879 144.112V125.93H305.991V143.752C309.935 143.655 312.87 143.607 314.793 143.607V125.93H325.905V144.112C329.705 144.449 333.072 144.99 336.007 145.736C338.941 146.481 341.659 147.563 344.16 148.982C346.661 150.401 348.646 152.277 350.113 154.61C351.579 156.943 352.457 159.697 352.745 162.872ZM337.232 202.195C337.232 200.463 336.872 198.924 336.15 197.577C335.429 196.23 334.538 195.123 333.481 194.258C332.422 193.392 331.04 192.658 329.332 192.057C327.625 191.456 326.049 191.011 324.606 190.722C323.163 190.434 321.384 190.217 319.267 190.073C317.15 189.929 315.491 189.857 314.288 189.857C313.086 189.857 311.534 189.88 309.634 189.929C307.734 189.977 306.592 190.001 306.207 190.001V214.389C306.592 214.389 307.482 214.401 308.877 214.425C310.272 214.449 311.426 214.461 312.34 214.461C313.254 214.461 314.528 214.425 316.164 214.353C317.8 214.282 319.206 214.185 320.385 214.065C321.563 213.945 322.934 213.74 324.498 213.452C326.061 213.163 327.396 212.826 328.502 212.441C329.609 212.056 330.751 211.552 331.929 210.926C333.108 210.301 334.058 209.579 334.779 208.761C335.501 207.944 336.09 206.982 336.547 205.875C337.003 204.769 337.232 203.542 337.232 202.195ZM332.11 167.85C332.11 166.263 331.809 164.855 331.208 163.629C330.606 162.403 329.873 161.392 329.007 160.598C328.141 159.804 326.987 159.131 325.544 158.578C324.101 158.025 322.778 157.628 321.576 157.387C320.373 157.147 318.894 156.954 317.138 156.81C315.382 156.666 313.987 156.605 312.954 156.629C311.919 156.653 310.62 156.677 309.057 156.702C307.494 156.726 306.544 156.738 306.207 156.738V178.889C306.448 178.889 307.278 178.901 308.696 178.925C310.115 178.949 311.234 178.949 312.052 178.925C312.869 178.901 314.072 178.852 315.659 178.781C317.246 178.708 318.569 178.576 319.627 178.384C320.686 178.191 321.924 177.927 323.343 177.59C324.762 177.253 325.929 176.808 326.843 176.255C327.757 175.701 328.646 175.052 329.512 174.307C330.378 173.562 331.027 172.635 331.46 171.529C331.892 170.423 332.11 169.197 332.11 167.85Z" fill="white"/>
</g>
</g>
</g>
<defs>
<clipPath id="clip0_3378_5844">
<rect width="624" height="780" rx="16" fill="white"/>
</clipPath>
<clipPath id="clip1_3378_5844">
<rect width="196" height="196" fill="white" transform="translate(218 88)"/>
</clipPath>
<clipPath id="clip2_3378_5844">
<rect width="86.7888" height="120.187" fill="white" transform="translate(272.566 125.867)"/>
</clipPath>
</defs>
</svg>
