<svg width="296" height="324" viewBox="0 0 296 324" fill="none" xmlns="http://www.w3.org/2000/svg">
<path d="M172.312 9.71945C159.019 2.04274 137.257 2.04274 123.964 9.71945L28.2773 64.9736C14.9733 72.639 4.10364 91.4911 4.10364 106.845V217.33C4.10364 232.684 14.9733 251.525 28.2773 259.201L123.953 314.455C137.257 322.132 159.019 322.132 172.312 314.455L267.999 259.201C281.292 251.525 292.173 232.684 292.173 217.33V106.845C292.173 91.4911 281.303 72.6504 267.999 64.9623L172.312 9.71945Z" fill="#8996FF"/>
<path d="M148.138 323.695C138.378 323.695 129.173 321.487 122.209 317.467L26.5337 262.213C12.2333 253.97 0.60498 233.839 0.60498 217.33V106.844C0.60498 90.3362 12.2333 70.1933 26.5337 61.9505L122.209 6.69627C136.125 -1.34277 160.151 -1.34277 174.056 6.69627L269.743 61.9505C284.032 70.1933 295.671 90.3362 295.671 106.844V217.33C295.671 233.839 284.032 253.97 269.743 262.224L174.056 317.467C167.104 321.487 157.898 323.695 148.127 323.695H148.138ZM148.138 7.45488C139.578 7.45488 131.607 9.33443 125.708 12.7425L30.021 67.9967C17.8606 75.0167 7.59101 92.7932 7.59101 106.833V217.33C7.59101 231.37 17.8606 249.158 30.0097 256.178L125.708 311.432C137.529 318.248 158.747 318.248 170.568 311.432L266.255 256.178C278.416 249.158 288.685 231.37 288.685 217.33V106.844C288.685 92.8045 278.416 75.0054 266.255 67.9854L170.568 12.7425C164.658 9.34575 156.698 7.45488 148.138 7.45488Z" fill="#8996FF"/>
<path d="M148.138 146.904C140.303 146.904 132.762 145.149 127.452 142.091L31.7647 86.8259C27.6433 84.4482 25.2769 81.5609 25.2769 78.9114C25.2769 76.262 27.6433 73.3747 31.7647 70.9969L127.452 15.7541C132.762 12.697 140.303 10.9307 148.138 10.9307C155.973 10.9307 163.514 12.6857 168.825 15.7541L264.5 71.0083C268.633 73.386 270.988 76.262 271 78.9114C271 81.5609 268.622 84.4595 264.512 86.8372L168.825 142.08C163.503 145.149 155.973 146.904 148.138 146.904ZM133.532 310.741C131.449 310.741 128.946 309.949 126.286 308.409L30.6098 253.155C19.3891 246.689 9.91211 230.283 9.91211 217.33V106.844C9.91211 103.753 10.5462 96.586 16.366 96.586C18.4607 96.586 20.9629 97.3899 23.6124 98.9298L119.311 154.173C130.52 160.649 139.997 177.044 139.997 189.997V300.494C139.997 304.106 139.216 307.061 137.789 308.828C137.288 309.466 136.641 309.974 135.902 310.309C135.163 310.645 134.354 310.797 133.543 310.753L133.532 310.741ZM161.578 310.741C155.747 310.741 155.124 303.574 155.124 300.494V189.997C155.124 177.056 164.59 160.649 175.799 154.173L271.486 98.9184C274.147 97.3899 276.649 96.586 278.733 96.586C284.564 96.586 285.198 103.753 285.198 106.844V217.33C285.198 230.283 275.721 246.689 264.512 253.155L168.825 308.409C166.175 309.937 163.661 310.741 161.578 310.741Z" fill="white"/>
<mask id="path-4-outside-1_5534_340" maskUnits="userSpaceOnUse" x="119.625" y="40.4219" width="43" height="64" fill="black">
<rect fill="white" x="119.625" y="40.4219" width="43" height="64"/>
<path d="M137.145 83.1419C134.745 69.7819 153.545 66.2619 153.545 57.1419C153.545 51.6219 149.625 47.6219 141.465 47.6219C135.945 47.6219 130.905 50.0219 126.265 54.8219L122.025 50.9019C127.305 45.3019 133.545 41.5419 142.185 41.5419C153.465 41.5419 160.745 47.3819 160.745 56.5819C160.745 68.6619 141.625 71.1419 143.705 83.1419H137.145ZM140.585 102.822C137.705 102.822 135.465 100.822 135.465 97.6219C135.465 94.4219 137.785 92.2619 140.585 92.2619C143.385 92.2619 145.705 94.4219 145.705 97.6219C145.705 100.822 143.385 102.822 140.585 102.822Z"/>
</mask>
<path d="M137.145 83.1419C134.745 69.7819 153.545 66.2619 153.545 57.1419C153.545 51.6219 149.625 47.6219 141.465 47.6219C135.945 47.6219 130.905 50.0219 126.265 54.8219L122.025 50.9019C127.305 45.3019 133.545 41.5419 142.185 41.5419C153.465 41.5419 160.745 47.3819 160.745 56.5819C160.745 68.6619 141.625 71.1419 143.705 83.1419H137.145ZM140.585 102.822C137.705 102.822 135.465 100.822 135.465 97.6219C135.465 94.4219 137.785 92.2619 140.585 92.2619C143.385 92.2619 145.705 94.4219 145.705 97.6219C145.705 100.822 143.385 102.822 140.585 102.822Z" fill="#7B61FF"/>
<path d="M137.145 83.1419L136.161 83.3187L136.309 84.1419H137.145V83.1419ZM126.265 54.8219L125.586 55.5561L126.304 56.2201L126.984 55.5169L126.265 54.8219ZM122.025 50.9019L121.297 50.2159L120.605 50.9506L121.346 51.6361L122.025 50.9019ZM143.705 83.1419V84.1419H144.893L144.69 82.9711L143.705 83.1419ZM138.129 82.9651C137.037 76.8845 140.691 73.0049 145.088 69.3181C147.227 67.5242 149.593 65.7376 151.371 63.8608C153.168 61.9631 154.545 59.7965 154.545 57.1419H152.545C152.545 59.0473 151.572 60.7407 149.919 62.4855C148.247 64.2512 146.063 65.8895 143.802 67.7857C139.399 71.4788 134.853 76.0393 136.161 83.3187L138.129 82.9651ZM154.545 57.1419C154.545 54.1307 153.466 51.4543 151.21 49.548C148.975 47.6588 145.697 46.6219 141.465 46.6219V48.6219C145.393 48.6219 148.155 49.585 149.92 51.0757C151.664 52.5494 152.545 54.633 152.545 57.1419H154.545ZM141.465 46.6219C135.616 46.6219 130.33 49.1775 125.546 54.1269L126.984 55.5169C131.48 50.8663 136.274 48.6219 141.465 48.6219V46.6219ZM126.944 54.0876L122.704 50.1676L121.346 51.6361L125.586 55.5561L126.944 54.0876ZM122.753 51.5879C127.901 46.1279 133.894 42.5419 142.185 42.5419V40.5419C133.196 40.5419 126.709 44.4758 121.297 50.2159L122.753 51.5879ZM142.185 42.5419C147.662 42.5419 152.06 43.9602 155.066 46.3897C158.051 48.8014 159.745 52.2703 159.745 56.5819H161.745C161.745 51.6935 159.799 47.6424 156.324 44.8341C152.87 42.0436 147.988 40.5419 142.185 40.5419V42.5419ZM159.745 56.5819C159.745 59.3055 158.678 61.5072 157.021 63.5016C155.339 65.5256 153.107 67.2746 150.819 69.1122C148.575 70.9142 146.268 72.8087 144.675 75.0485C143.048 77.3354 142.147 80.0059 142.72 83.3127L144.69 82.9711C144.223 80.2779 144.932 78.1383 146.305 76.2078C147.712 74.23 149.795 72.4995 152.071 70.6716C154.303 68.8791 156.721 66.9931 158.559 64.7796C160.422 62.5365 161.745 59.8982 161.745 56.5819H159.745ZM143.705 82.1419H137.145V84.1419H143.705V82.1419ZM140.585 101.822C139.379 101.822 138.359 101.406 137.644 100.707C136.935 100.013 136.465 98.979 136.465 97.6219H134.465C134.465 99.4648 135.115 101.031 136.246 102.137C137.371 103.238 138.911 103.822 140.585 103.822V101.822ZM136.465 97.6219C136.465 94.9641 138.347 93.2619 140.585 93.2619V91.2619C137.223 91.2619 134.465 93.8797 134.465 97.6219H136.465ZM140.585 93.2619C142.823 93.2619 144.705 94.9641 144.705 97.6219H146.705C146.705 93.8797 143.947 91.2619 140.585 91.2619V93.2619ZM144.705 97.6219C144.705 100.239 142.864 101.822 140.585 101.822V103.822C143.906 103.822 146.705 101.405 146.705 97.6219H144.705Z" fill="#7B61FF" mask="url(#path-4-outside-1_5534_340)"/>
<mask id="path-6-outside-2_5534_340" maskUnits="userSpaceOnUse" x="47.2312" y="170.95" width="43" height="64" fill="black">
<rect fill="white" x="47.2312" y="170.95" width="43" height="64"/>
<path d="M64.7512 213.67C62.3512 200.31 81.1512 196.79 81.1512 187.67C81.1512 182.15 77.2312 178.15 69.0712 178.15C63.5512 178.15 58.5112 180.55 53.8712 185.35L49.6312 181.43C54.9112 175.83 61.1512 172.07 69.7912 172.07C81.0712 172.07 88.3512 177.91 88.3512 187.11C88.3512 199.19 69.2312 201.67 71.3112 213.67H64.7512ZM68.1912 233.35C65.3112 233.35 63.0712 231.35 63.0712 228.15C63.0712 224.95 65.3912 222.79 68.1912 222.79C70.9912 222.79 73.3112 224.95 73.3112 228.15C73.3112 231.35 70.9912 233.35 68.1912 233.35Z"/>
</mask>
<path d="M64.7512 213.67C62.3512 200.31 81.1512 196.79 81.1512 187.67C81.1512 182.15 77.2312 178.15 69.0712 178.15C63.5512 178.15 58.5112 180.55 53.8712 185.35L49.6312 181.43C54.9112 175.83 61.1512 172.07 69.7912 172.07C81.0712 172.07 88.3512 177.91 88.3512 187.11C88.3512 199.19 69.2312 201.67 71.3112 213.67H64.7512ZM68.1912 233.35C65.3112 233.35 63.0712 231.35 63.0712 228.15C63.0712 224.95 65.3912 222.79 68.1912 222.79C70.9912 222.79 73.3112 224.95 73.3112 228.15C73.3112 231.35 70.9912 233.35 68.1912 233.35Z" fill="#7B61FF"/>
<path d="M64.7512 213.67L63.767 213.847L63.9148 214.67H64.7512V213.67ZM53.8712 185.35L53.1923 186.084L53.9105 186.748L54.5902 186.045L53.8712 185.35ZM49.6312 181.43L48.9036 180.744L48.2108 181.479L48.9523 182.164L49.6312 181.43ZM71.3112 213.67V214.67H72.4994L72.2965 213.499L71.3112 213.67ZM65.7355 213.493C64.6431 207.413 68.2975 203.533 72.6938 199.846C74.8328 198.053 77.1996 196.266 78.9772 194.389C80.7746 192.491 82.1512 190.325 82.1512 187.67H80.1512C80.1512 189.576 79.1778 191.269 77.5252 193.014C75.8528 194.779 73.6696 196.418 71.4086 198.314C67.0049 202.007 62.4593 206.568 63.767 213.847L65.7355 213.493ZM82.1512 187.67C82.1512 184.659 81.0725 181.983 78.8166 180.076C76.5808 178.187 73.3032 177.15 69.0712 177.15V179.15C72.9992 179.15 75.7616 180.113 77.5258 181.604C79.2699 183.078 80.1512 185.161 80.1512 187.67H82.1512ZM69.0712 177.15C63.2227 177.15 57.9366 179.706 53.1522 184.655L54.5902 186.045C59.0858 181.395 63.8797 179.15 69.0712 179.15V177.15ZM54.5501 184.616L50.3101 180.696L48.9523 182.164L53.1923 186.084L54.5501 184.616ZM50.3588 182.116C55.5068 176.656 61.4999 173.07 69.7912 173.07V171.07C60.8025 171.07 54.3156 175.004 48.9036 180.744L50.3588 182.116ZM69.7912 173.07C75.2686 173.07 79.6661 174.488 82.6727 176.918C85.6573 179.33 87.3512 182.799 87.3512 187.11H89.3512C89.3512 182.222 87.4051 178.171 83.9297 175.362C80.4763 172.572 75.5938 171.07 69.7912 171.07V173.07ZM87.3512 187.11C87.3512 189.834 86.2837 192.036 84.627 194.03C82.9457 196.054 80.7131 197.803 78.425 199.641C76.1812 201.443 73.8745 203.337 72.2813 205.577C70.6546 207.864 69.7527 210.534 70.3259 213.841L72.2965 213.499C71.8297 210.806 72.5378 208.667 73.9111 206.736C75.3179 204.758 77.4013 203.028 79.6774 201.2C81.9093 199.407 84.3267 197.521 86.1654 195.308C88.0287 193.065 89.3512 190.427 89.3512 187.11H87.3512ZM71.3112 212.67H64.7512V214.67H71.3112V212.67ZM68.1912 232.35C66.9851 232.35 65.9649 231.934 65.2505 231.235C64.5407 230.541 64.0712 229.507 64.0712 228.15H62.0712C62.0712 229.993 62.7217 231.559 63.8519 232.665C64.9776 233.766 66.5173 234.35 68.1912 234.35V232.35ZM64.0712 228.15C64.0712 225.492 65.9535 223.79 68.1912 223.79V221.79C64.8289 221.79 62.0712 224.408 62.0712 228.15H64.0712ZM68.1912 223.79C70.4289 223.79 72.3112 225.492 72.3112 228.15H74.3112C74.3112 224.408 71.5535 221.79 68.1912 221.79V223.79ZM72.3112 228.15C72.3112 230.767 70.4701 232.35 68.1912 232.35V234.35C71.5123 234.35 74.3112 231.933 74.3112 228.15H72.3112Z" fill="#7B61FF" mask="url(#path-6-outside-2_5534_340)"/>
<mask id="path-8-outside-3_5534_340" maskUnits="userSpaceOnUse" x="195.309" y="170.95" width="43" height="64" fill="black">
<rect fill="white" x="195.309" y="170.95" width="43" height="64"/>
<path d="M212.829 213.67C210.429 200.31 229.229 196.79 229.229 187.67C229.229 182.15 225.309 178.15 217.149 178.15C211.629 178.15 206.589 180.55 201.949 185.35L197.709 181.43C202.989 175.83 209.229 172.07 217.869 172.07C229.149 172.07 236.429 177.91 236.429 187.11C236.429 199.19 217.309 201.67 219.389 213.67H212.829ZM216.269 233.35C213.389 233.35 211.149 231.35 211.149 228.15C211.149 224.95 213.469 222.79 216.269 222.79C219.069 222.79 221.389 224.95 221.389 228.15C221.389 231.35 219.069 233.35 216.269 233.35Z"/>
</mask>
<path d="M212.829 213.67C210.429 200.31 229.229 196.79 229.229 187.67C229.229 182.15 225.309 178.15 217.149 178.15C211.629 178.15 206.589 180.55 201.949 185.35L197.709 181.43C202.989 175.83 209.229 172.07 217.869 172.07C229.149 172.07 236.429 177.91 236.429 187.11C236.429 199.19 217.309 201.67 219.389 213.67H212.829ZM216.269 233.35C213.389 233.35 211.149 231.35 211.149 228.15C211.149 224.95 213.469 222.79 216.269 222.79C219.069 222.79 221.389 224.95 221.389 228.15C221.389 231.35 219.069 233.35 216.269 233.35Z" fill="#7B61FF"/>
<path d="M212.829 213.67L211.845 213.847L211.993 214.67H212.829V213.67ZM201.949 185.35L201.27 186.084L201.989 186.748L202.668 186.045L201.949 185.35ZM197.709 181.43L196.982 180.744L196.289 181.479L197.03 182.164L197.709 181.43ZM219.389 213.67V214.67H220.578L220.375 213.499L219.389 213.67ZM213.814 213.493C212.721 207.413 216.376 203.533 220.772 199.846C222.911 198.053 225.278 196.266 227.055 194.389C228.853 192.491 230.229 190.325 230.229 187.67H228.229C228.229 189.576 227.256 191.269 225.603 193.014C223.931 194.779 221.748 196.418 219.487 198.314C215.083 202.007 210.537 206.568 211.845 213.847L213.814 213.493ZM230.229 187.67C230.229 184.659 229.151 181.983 226.895 180.076C224.659 178.187 221.381 177.15 217.149 177.15V179.15C221.077 179.15 223.84 180.113 225.604 181.604C227.348 183.078 228.229 185.161 228.229 187.67H230.229ZM217.149 177.15C211.301 177.15 206.015 179.706 201.23 184.655L202.668 186.045C207.164 181.395 211.958 179.15 217.149 179.15V177.15ZM202.628 184.616L198.388 180.696L197.03 182.164L201.27 186.084L202.628 184.616ZM198.437 182.116C203.585 176.656 209.578 173.07 217.869 173.07V171.07C208.881 171.07 202.394 175.004 196.982 180.744L198.437 182.116ZM217.869 173.07C223.347 173.07 227.744 174.488 230.751 176.918C233.735 179.33 235.429 182.799 235.429 187.11H237.429C237.429 182.222 235.483 178.171 232.008 175.362C228.554 172.572 223.672 171.07 217.869 171.07V173.07ZM235.429 187.11C235.429 189.834 234.362 192.036 232.705 194.03C231.024 196.054 228.791 197.803 226.503 199.641C224.259 201.443 221.953 203.337 220.359 205.577C218.733 207.864 217.831 210.534 218.404 213.841L220.375 213.499C219.908 210.806 220.616 208.667 221.989 206.736C223.396 204.758 225.479 203.028 227.755 201.2C229.987 199.407 232.405 197.521 234.244 195.308C236.107 193.065 237.429 190.427 237.429 187.11H235.429ZM219.389 212.67H212.829V214.67H219.389V212.67ZM216.269 232.35C215.063 232.35 214.043 231.934 213.329 231.235C212.619 230.541 212.149 229.507 212.149 228.15H210.149C210.149 229.993 210.8 231.559 211.93 232.665C213.056 233.766 214.595 234.35 216.269 234.35V232.35ZM212.149 228.15C212.149 225.492 214.032 223.79 216.269 223.79V221.79C212.907 221.79 210.149 224.408 210.149 228.15H212.149ZM216.269 223.79C218.507 223.79 220.389 225.492 220.389 228.15H222.389C222.389 224.408 219.632 221.79 216.269 221.79V223.79ZM220.389 228.15C220.389 230.767 218.548 232.35 216.269 232.35V234.35C219.59 234.35 222.389 231.933 222.389 228.15H220.389Z" fill="#7B61FF" mask="url(#path-8-outside-3_5534_340)"/>
</svg>
