<svg width="262" height="60" viewBox="0 0 262 60" fill="none" xmlns="http://www.w3.org/2000/svg">
<path d="M24.0173 35.9829V60.0003H48.0346C48.0346 46.7949 37.2227 35.9829 24.0173 35.9829Z" fill="#FFDD17"/>
<path d="M0 35.9829C0 49.2709 10.7294 60.0003 24.0173 60.0003V35.9829H0Z" fill="#FA48E8"/>
<path d="M24.0173 24.0174C24.0173 10.7294 13.2879 0 0 0V36.0673H24.0173V24.0174Z" fill="#93DC08"/>
<path d="M238.423 42.3509C237.993 41.3737 237.524 40.2792 237.016 39.0674C236.547 37.8556 236.038 36.468 235.491 34.9044C234.983 33.3408 234.436 31.5623 233.849 29.5687C233.302 27.5361 232.716 25.2102 232.09 22.5913C232.638 22.044 233.361 21.5749 234.26 21.184C235.198 20.7541 236.214 20.5391 237.309 20.5391C238.677 20.5391 239.81 20.8322 240.71 21.4186C241.609 21.9658 242.273 23.0212 242.703 24.5848L247.335 40.7092H247.57C248.039 39.3801 248.488 37.9338 248.918 36.3702C249.387 34.8067 249.837 33.204 250.267 31.5623C250.697 29.8814 251.088 28.2201 251.44 26.5784C251.83 24.8975 252.163 23.2558 252.436 21.6531C253.844 20.9104 255.388 20.5391 257.068 20.5391C258.436 20.5391 259.57 20.8322 260.469 21.4186C261.368 22.0049 261.818 23.0212 261.818 24.4675C261.818 25.523 261.681 26.7543 261.407 28.1615C261.134 29.5296 260.762 30.9955 260.293 32.559C259.863 34.1226 259.336 35.7448 258.71 37.4257C258.124 39.0674 257.498 40.6896 256.834 42.2923C256.169 43.8949 255.485 45.4194 254.782 46.8657C254.078 48.273 253.394 49.5434 252.729 50.6769C251.635 52.5923 250.619 54.1559 249.681 55.3677C248.742 56.5794 247.843 57.5176 246.983 58.1821C246.123 58.8857 245.263 59.3548 244.403 59.5893C243.543 59.8629 242.644 59.9998 241.706 59.9998C240.065 59.9998 238.736 59.5111 237.719 58.5339C236.703 57.5567 236.097 56.2863 235.902 54.7227C237.152 53.7455 238.403 52.651 239.654 51.4392C240.905 50.2665 242.039 49.0547 243.055 47.8039C242.39 47.6084 241.667 47.1589 240.885 46.4553C240.143 45.7126 239.322 44.3445 238.423 42.3509Z" fill="#7B61FF"/>
<path d="M218.912 49.5631C218.521 49.6803 217.896 49.7976 217.036 49.9149C216.215 50.0321 215.355 50.0908 214.456 50.0908C213.596 50.0908 212.814 50.0321 212.11 49.9149C211.446 49.7976 210.879 49.5631 210.41 49.2113C209.941 48.8595 209.57 48.3904 209.296 47.804C209.061 47.1786 208.944 46.3773 208.944 45.4V27.8098C208.944 26.9108 209.1 26.1485 209.413 25.5231C209.765 24.8586 210.254 24.2723 210.879 23.7641C211.504 23.2559 212.267 22.8064 213.166 22.4155C214.104 21.9855 215.101 21.6142 216.156 21.3015C217.211 20.9887 218.306 20.7542 219.44 20.5979C220.573 20.4024 221.707 20.3047 222.84 20.3047C224.717 20.3047 226.202 20.676 227.297 21.4187C228.391 22.1223 228.938 23.295 228.938 24.9368C228.938 25.484 228.86 26.0313 228.704 26.5785C228.547 27.0867 228.352 27.5558 228.117 27.9857C227.297 27.9857 226.456 28.0248 225.596 28.103C224.736 28.1812 223.896 28.2985 223.075 28.4548C222.254 28.6112 221.472 28.7871 220.73 28.9825C220.026 29.1389 219.42 29.3343 218.912 29.5689V49.5631Z" fill="#7B61FF"/>
<path d="M189.208 13.0928C193.704 13.0928 197.124 14.0309 199.469 15.9072C201.815 17.7444 202.987 20.2266 202.987 23.3537C202.987 25.23 202.479 26.8327 201.463 28.1617C200.486 29.4517 199.313 30.4289 197.945 31.0934C198.766 31.4061 199.528 31.797 200.231 32.2661C200.935 32.7352 201.561 33.3215 202.108 34.0251C202.655 34.7287 203.085 35.5496 203.398 36.4877C203.71 37.4259 203.867 38.5204 203.867 39.7713C203.867 41.4521 203.495 42.957 202.753 44.2861C202.049 45.6151 201.052 46.7487 199.762 47.6868C198.472 48.625 196.928 49.3286 195.13 49.7977C193.371 50.3058 191.436 50.5599 189.326 50.5599C185.26 50.5599 182.192 49.9931 180.12 48.8595C178.048 47.7259 177.012 46.2796 177.012 44.5206C177.012 43.4652 177.267 42.5661 177.775 41.8234C178.283 41.0417 178.908 40.4358 179.651 40.0058C180.433 40.553 181.469 41.1394 182.759 41.7648C184.088 42.3511 185.808 42.6443 187.918 42.6443C189.912 42.6443 191.378 42.2925 192.316 41.5889C193.293 40.8853 193.782 39.9667 193.782 38.8331C193.782 37.6995 193.391 36.8395 192.609 36.2532C191.866 35.6669 190.557 35.3737 188.681 35.3737H183.169C182.895 34.9437 182.661 34.416 182.465 33.7906C182.27 33.1652 182.172 32.4225 182.172 31.5625C182.172 30.6634 182.25 29.9012 182.407 29.2758C182.602 28.6112 182.856 28.064 183.169 27.634H188.681C191.495 27.634 192.902 26.5591 192.902 24.4091C192.902 23.3928 192.453 22.5719 191.554 21.9465C190.655 21.3211 189.306 21.0084 187.508 21.0084C185.905 21.0084 184.498 21.2038 183.286 21.5947C182.075 21.9465 181.078 22.396 180.296 22.9433C179.631 22.4742 179.084 21.9074 178.654 21.2429C178.224 20.5393 178.009 19.7184 178.009 18.7803C178.009 16.8258 179.026 15.399 181.058 14.5C183.091 13.5618 185.808 13.0928 189.208 13.0928Z" fill="#7B61FF"/>
<path d="M165.088 39.8306C165.088 40.847 165.401 41.5701 166.026 42.0001C166.691 42.4301 167.609 42.6451 168.782 42.6451C169.368 42.6451 169.974 42.606 170.6 42.5278C171.225 42.4105 171.772 42.2737 172.241 42.1174C172.593 42.5473 172.886 43.036 173.121 43.5832C173.395 44.0914 173.531 44.7168 173.531 45.4595C173.531 46.9449 172.965 48.1567 171.831 49.0948C170.736 50.0329 168.782 50.502 165.968 50.502C162.528 50.502 159.87 49.7202 157.993 48.1567C156.156 46.5931 155.238 44.0523 155.238 40.5342V15.4389C155.668 15.3216 156.273 15.2043 157.055 15.0871C157.876 14.9307 158.736 14.8525 159.635 14.8525C161.355 14.8525 162.684 15.1653 163.622 15.7907C164.599 16.377 165.088 17.6474 165.088 19.6019V23.3545H172.769C173.004 23.7845 173.219 24.3317 173.414 24.9962C173.649 25.6217 173.766 26.3253 173.766 27.1071C173.766 28.4752 173.453 29.472 172.828 30.0974C172.241 30.6837 171.44 30.9769 170.424 30.9769H165.088V39.8306Z" fill="#7B61FF"/>
<path d="M141.611 39.8306C141.611 40.847 141.924 41.5701 142.549 42.0001C143.214 42.4301 144.132 42.6451 145.305 42.6451C145.891 42.6451 146.497 42.606 147.123 42.5278C147.748 42.4105 148.295 42.2737 148.764 42.1174C149.116 42.5473 149.409 43.036 149.644 43.5832C149.917 44.0914 150.054 44.7168 150.054 45.4595C150.054 46.9449 149.487 48.1567 148.354 49.0948C147.259 50.0329 145.305 50.502 142.491 50.502C139.051 50.502 136.393 49.7202 134.516 48.1567C132.679 46.5931 131.76 44.0523 131.76 40.5342V15.4389C132.19 15.3216 132.796 15.2043 133.578 15.0871C134.399 14.9307 135.259 14.8525 136.158 14.8525C137.878 14.8525 139.207 15.1653 140.145 15.7907C141.122 16.377 141.611 17.6474 141.611 19.6019V23.3545H149.292C149.527 23.7845 149.742 24.3317 149.937 24.9962C150.172 25.6217 150.289 26.3253 150.289 27.1071C150.289 28.4752 149.976 29.472 149.351 30.0974C148.764 30.6837 147.963 30.9769 146.947 30.9769H141.611V39.8306Z" fill="#7B61FF"/>
<path d="M126.78 35.3751C126.78 37.7987 126.409 39.9681 125.666 41.8835C124.924 43.7598 123.868 45.3429 122.5 46.6329C121.171 47.9228 119.568 48.9001 117.692 49.5646C115.816 50.2291 113.725 50.5613 111.418 50.5613C109.112 50.5613 107.021 50.2095 105.144 49.5059C103.268 48.8023 101.646 47.8055 100.278 46.5156C98.9488 45.1866 97.9129 43.5839 97.1702 41.7076C96.4275 39.8313 96.0562 37.7205 96.0562 35.3751C96.0562 33.0689 96.4275 30.9776 97.1702 29.1013C97.9129 27.225 98.9488 25.6419 100.278 24.3519C101.646 23.0229 103.268 22.0066 105.144 21.303C107.021 20.5994 109.112 20.2476 111.418 20.2476C113.725 20.2476 115.816 20.6189 117.692 21.3616C119.568 22.0652 121.171 23.0815 122.5 24.4106C123.868 25.7005 124.924 27.2836 125.666 29.1599C126.409 31.0362 126.78 33.108 126.78 35.3751ZM106.258 35.3751C106.258 37.7596 106.708 39.5968 107.607 40.8867C108.545 42.1376 109.835 42.763 111.477 42.763C113.119 42.763 114.369 42.118 115.229 40.8281C116.128 39.5382 116.578 37.7205 116.578 35.3751C116.578 33.0298 116.128 31.2317 115.229 29.9808C114.33 28.6909 113.06 28.0459 111.418 28.0459C109.776 28.0459 108.506 28.6909 107.607 29.9808C106.708 31.2317 106.258 33.0298 106.258 35.3751Z" fill="#7B61FF"/>
<path d="M74.0142 49.7984C72.3334 49.7984 71.0044 49.3097 70.0271 48.3325C69.0499 47.3553 68.5613 46.0262 68.5613 44.3454V14.0316C68.9913 13.9534 69.6753 13.8557 70.6135 13.7384C71.5516 13.5821 72.4507 13.5039 73.3106 13.5039C74.2097 13.5039 74.9915 13.5821 75.656 13.7384C76.3596 13.8557 76.9459 14.0902 77.415 14.4421C77.8841 14.7939 78.2359 15.2825 78.4704 15.9079C78.7049 16.5333 78.8222 17.3542 78.8222 18.3705V41.531H92.2494C92.523 41.961 92.7771 42.5473 93.0116 43.29C93.2461 43.9936 93.3634 44.7363 93.3634 45.5181C93.3634 47.0817 93.0312 48.1957 92.3666 48.8602C91.7021 49.4857 90.8226 49.7984 89.7281 49.7984H74.0142Z" fill="#7B61FF"/>
</svg>
