<svg width="161" height="40" viewBox="0 0 161 40" fill="none" xmlns="http://www.w3.org/2000/svg">
<path d="M133.455 27.5187C131.885 27.5187 130.6 26.912 129.762 25.8414V33.8533C130.85 34.1209 132.01 34.2815 133.223 34.2815C137.274 34.2815 140.825 32.7291 143.27 30.1953L138.041 25.5737C137.203 26.4481 135.561 27.5187 133.455 27.5187Z" fill="#7B61FF"/>
<path d="M132.67 10.5312C131.671 10.5312 130.707 10.6562 129.779 10.8524V18.7037C130.475 17.8115 131.439 17.2941 132.581 17.2941C134.187 17.2941 135.561 18.3112 136.132 20.0956H129.779V24.6814H144.5C144.625 24.1104 144.679 23.2182 144.679 22.5937C144.661 15.5989 139.504 10.5312 132.67 10.5312Z" fill="#7B61FF"/>
<path d="M76.926 10.1743C69.8955 10.1743 64.6138 15.2955 64.6138 22.0405C64.6138 28.8033 69.8955 33.9066 76.926 33.9066C83.9565 33.9066 89.2383 28.7855 89.2383 22.0405C89.2383 15.2955 83.9565 10.1743 76.926 10.1743ZM76.926 26.1803C74.5706 26.1803 72.8398 24.3959 72.8398 22.0405C72.8398 19.6851 74.5706 17.9007 76.926 17.9007C79.2814 17.9007 81.0123 19.6851 81.0123 22.0405C81.0123 24.3959 79.2814 26.1803 76.926 26.1803Z" fill="#7B61FF"/>
<path d="M101.515 12.7974V10.8881L93.5205 10.8881V33.5677H101.515V23.4324C101.515 20.5952 103.245 18.7573 106.725 18.7573H107.831V10.5312H106.725C104.655 10.5312 102.924 11.3699 101.515 12.7974Z" fill="#7B61FF"/>
<path d="M51.0526 15.8134C53.1403 15.8134 54.8712 16.5628 56.6912 17.5978L60.1172 12.7086C57.9046 11.2454 54.9604 9.81787 50.7314 9.81787C50.0533 9.81787 49.4109 9.85356 48.7686 9.92493V16.5807C48.9827 16.0275 49.9462 15.8134 51.0526 15.8134Z" fill="#7B61FF"/>
<path d="M51.7843 18.9359C50.0713 18.6147 48.8223 18.3292 48.626 17.6689V24.7351C48.8044 24.7708 48.9829 24.8065 49.1613 24.8422C51.1241 25.2347 52.4446 25.5559 52.4446 26.3946C52.4446 26.5195 52.4089 26.6266 52.3553 26.7336C52.4089 26.8407 52.4446 26.9477 52.4446 27.0727C52.4446 27.8221 51.3739 28.2325 49.7323 28.2325C49.3397 28.2325 48.9829 28.1968 48.626 28.1611V34.1745C49.0899 34.2102 49.5539 34.228 50.0535 34.228C55.8349 34.228 60.3315 31.5158 60.3315 26.3232C60.3137 20.7202 55.246 19.6139 51.7843 18.9359Z" fill="#7B61FF"/>
<path d="M49.1613 24.8424C48.9829 24.8067 48.8044 24.771 48.626 24.7354V25.4134C48.8044 25.4491 48.9829 25.4848 49.1613 25.5205C50.8386 25.8595 52.0342 26.145 52.3553 26.7339C52.4089 26.6268 52.4446 26.5197 52.4446 26.3948C52.4446 25.5562 51.1241 25.2528 49.1613 24.8424Z" fill="#7B61FF"/>
<path d="M151.389 15.8134C153.476 15.8134 155.207 16.5628 157.027 17.5978L160.453 12.7086C158.223 11.2454 155.296 9.81787 151.067 9.81787C150.389 9.81787 149.747 9.85356 149.104 9.92493V16.5807C149.319 16.0275 150.282 15.8134 151.389 15.8134Z" fill="#7B61FF"/>
<path d="M152.12 18.9361C150.407 18.6149 149.158 18.3116 148.962 17.6514V24.7175C149.14 24.7532 149.319 24.7889 149.497 24.8246C151.46 25.2172 152.781 25.5384 152.781 26.377C152.781 26.5019 152.745 26.609 152.691 26.716C152.745 26.8231 152.781 26.9302 152.781 27.0551C152.781 27.8045 151.71 28.2149 150.068 28.2149C149.676 28.2149 149.319 28.1792 148.962 28.1436V34.1569C149.426 34.1926 149.89 34.2105 150.389 34.2105C156.171 34.2105 160.667 31.4982 160.667 26.3056C160.65 20.7205 155.582 19.6142 152.12 18.9361Z" fill="#7B61FF"/>
<path d="M149.497 24.8424C149.319 24.8067 149.14 24.771 148.962 24.7354V25.4134C149.14 25.4491 149.319 25.4848 149.497 25.5205C151.175 25.8595 152.37 26.145 152.691 26.7339C152.745 26.6268 152.781 26.5197 152.781 26.3948C152.781 25.5562 151.46 25.2528 149.497 24.8424Z" fill="#7B61FF"/>
<path d="M120.161 5.71338L112.167 5.71338V11.0487H112.114V18.3468H112.167V25.5914C112.167 30.5342 114.737 34.2636 120.875 34.2636C122.659 34.2636 124.069 33.9602 125.461 33.2465V25.7699C124.658 26.1624 123.677 26.5193 122.624 26.5193C120.929 26.5193 120.179 25.5914 120.179 24.2531V18.3468H125.479V11.0487L120.179 11.0487V5.71338H120.161Z" fill="#7B61FF"/>
<path d="M37.9933 21.0318C37.2893 19.6096 36.4034 18.3023 35.2494 17.2009C32.8837 14.9358 29.7759 13.686 26.5004 13.686C24.7813 13.686 23.11 14.026 21.5393 14.6916C16.6261 16.7412 15.2901 16.8322 14.6484 16.88C14.6005 16.8848 14.5574 16.8848 14.5143 16.8896C12.7856 17.0141 11.1766 16.4682 9.97461 15.3524C8.73433 14.1984 8.02561 12.5319 8.02561 10.7792C8.02561 7.5325 10.4343 4.08464 14.8974 4.08464C14.8878 4.07985 14.8734 4.07985 14.8639 4.07506C13.9396 3.82126 12.7808 3.74464 11.3394 3.83084C9.02644 3.96971 7.0535 4.78858 5.46844 6.2635C3.35184 8.50461 1.74283 11.2294 0.837769 14.2558C0.79946 14.3803 0.765939 14.5001 0.732418 14.6246C-0.589263 20.0933 2.52339 21.5778 5.53548 23.0096C6.34477 23.3927 7.1397 23.771 7.83885 24.2163C7.87237 24.2355 7.90589 24.2594 7.93462 24.2786C8.98813 24.9634 9.81179 25.8158 10.147 27.0943C10.1518 27.1087 10.1566 27.1279 10.1566 27.1422C10.1853 27.2619 10.214 27.3817 10.2332 27.5062C10.3194 28.2628 10.2763 29.0098 10.1614 29.7233C10.1566 29.7377 10.1566 29.7569 10.1518 29.7712C10.0081 30.6428 9.76869 31.4664 9.54841 32.1991C9.54362 32.2182 9.53883 32.2374 9.52926 32.2566C9.52447 32.2805 9.51489 32.2997 9.5101 32.3236C9.20841 33.3292 8.9594 34.1529 9.10306 34.6653C9.10785 34.6796 9.11264 34.6988 9.11743 34.7132C9.14137 34.7802 9.1701 34.8425 9.20362 34.8951C9.3425 35.0963 9.58193 35.2112 9.94108 35.2447C9.94108 35.2447 9.95545 35.2447 9.98418 35.2447C10.0752 35.2447 10.3146 35.2351 10.6498 35.1489C10.6785 35.1394 10.7121 35.1346 10.7408 35.125C10.9371 35.0723 11.1622 34.9957 11.4112 34.8856C11.9236 34.6557 12.436 34.3253 12.9244 33.9039C13.2549 33.6213 13.5805 33.2957 13.8918 32.9318C13.9061 32.9174 13.9157 32.903 13.9301 32.8887C14.1839 32.5918 14.4329 32.2661 14.6723 31.9166C15.1081 31.2845 15.5151 30.6811 15.8886 30.1208C15.8982 30.1064 15.9126 30.0873 15.9222 30.0729C16.061 29.867 16.1951 29.6707 16.3196 29.4743C16.9374 28.5501 17.4833 27.7312 17.9909 27.0177C18.0053 26.9986 18.0148 26.9842 18.0292 26.965C18.69 26.0408 19.2838 25.2938 19.892 24.7048C20.3661 24.2259 20.8593 23.7901 21.3717 23.3975C21.4004 23.3735 21.434 23.3496 21.4627 23.3304C23.6894 21.6544 26.2801 20.778 29.0576 20.778C29.297 20.778 29.5316 20.7828 29.7663 20.7972C29.8046 20.7972 29.8429 20.802 29.886 20.8068C31.2699 20.893 32.606 21.2042 33.8558 21.7118C33.8702 21.7166 33.8894 21.7262 33.9037 21.731C34.6747 22.047 35.4122 22.4445 36.1017 22.909C36.1161 22.9186 36.1257 22.9282 36.1401 22.933C36.7338 23.3352 37.2989 23.7949 37.8209 24.2977C37.8305 24.3073 37.8448 24.3217 37.8544 24.3313C38.3093 24.7718 38.7307 25.2507 39.1234 25.7631C39.133 25.7679 39.133 23.3352 37.9933 21.0318Z" fill="#7B61FF"/>
<path d="M21.3767 23.4071C20.8643 23.7998 20.3711 24.2355 19.897 24.7144C19.2888 25.2986 18.695 26.0505 18.0342 26.9747C21.3719 26.5676 24.8485 25.7536 28.0138 24.6138C30.5566 23.6992 32.5822 22.684 33.856 21.7215C32.6062 21.2139 31.2701 20.9026 29.8862 20.8164C29.4935 20.9792 29.0817 21.142 28.6411 21.3049C26.4096 22.1285 23.8955 22.8564 21.3767 23.4071Z" fill="#D7D0FF"/>
<path d="M9.55357 32.2042C9.77385 31.4715 10.0133 30.6478 10.1569 29.7763C7.83443 29.3884 5.80881 28.6893 4.10403 27.6884C2.62911 26.8217 1.42715 25.7442 0.50293 24.4561C0.761519 25.591 1.12067 26.6924 1.56123 27.7459C3.81192 30.1833 6.77134 31.5002 9.55357 32.2042Z" fill="#D7D0FF"/>
<path d="M29.0627 20.7827C26.2852 20.7827 23.6945 21.659 21.4678 23.3351C24.6379 22.6359 27.5638 21.7069 29.7714 20.8019C29.5367 20.7923 29.3021 20.7827 29.0627 20.7827Z" fill="#D7D0FF"/>
<path d="M10.1473 27.0944C9.81204 25.8158 8.9836 24.9682 7.93487 24.2786C7.15432 24.1637 6.42165 24.0056 5.74165 23.8141C2.99773 23.0335 1.07267 21.6448 0.0047887 19.6719C0.0047887 19.782 0 19.8874 0 19.9975C0 20.5769 0.0239435 21.1468 0.0718305 21.7119C2.14055 25.2363 6.15348 26.649 10.1473 27.0944Z" fill="#D7D0FF"/>
<path d="M5.75611 23.7709C6.40258 23.9529 7.09695 24.1061 7.83919 24.2163C7.14004 23.7709 6.34512 23.3926 5.53583 23.0095C2.52374 21.5777 -0.588916 20.098 0.732765 14.6245C0.292205 16.2048 0.0384037 17.8617 0.00488281 19.576C1.06319 21.5777 2.98824 22.9856 5.75611 23.7709Z" fill="#D7D0FF"/>
<path d="M10.1618 29.7237C10.2767 29.0102 10.3198 28.2632 10.2336 27.5066C10.2144 27.3821 10.1857 27.2623 10.157 27.1426C7.91106 26.8888 5.95249 26.3573 4.31475 25.5528C2.45195 24.6381 1.03928 23.3835 0.081543 21.8032C0.158162 22.6508 0.287457 23.4793 0.464639 24.2933C2.46153 27.1235 5.76094 28.9815 10.1618 29.7237Z" fill="#D7D0FF"/>
<path d="M23.68 38.3385C21.8172 38.6689 19.9592 38.8317 18.1395 38.8317C17.2919 38.8317 16.4491 38.7982 15.6207 38.7264C14.0835 38.5923 12.6038 38.3337 11.2007 37.9602C13.8584 39.2675 16.8418 40.0001 19.9975 40.0001C25.2028 40.0001 29.9053 38.1421 33.4538 34.9146C32.7546 35.3072 32.0172 35.6807 31.2414 36.0303C28.8806 37.0886 26.3378 37.8692 23.68 38.3385Z" fill="#D7D0FF"/>
<path d="M28.6027 27.5927C24.5946 29.0963 20.0693 29.9918 15.8888 30.1211C15.5152 30.6766 15.1082 31.28 14.6724 31.9169C14.433 32.2665 14.184 32.5921 13.9302 32.889C14.0307 32.8938 14.1313 32.9034 14.2271 32.9082C19.1259 33.2003 24.6569 32.2808 29.4025 30.3893C33.5782 28.7276 36.5759 26.544 37.821 24.3077C37.2942 23.8 36.734 23.3451 36.1402 22.9429C34.8951 24.5662 32.2134 26.2375 28.6027 27.5927Z" fill="#D7D0FF"/>
<path d="M37.8645 24.3408C36.6099 26.5867 33.6026 28.7704 29.4268 30.432C25.2558 32.0937 20.4815 33.0036 16.0568 33.0036C15.439 33.0036 14.8309 32.9844 14.2323 32.9509C14.1221 32.9461 14.0072 32.9365 13.8971 32.927C13.5858 33.2909 13.2602 33.6165 12.9297 33.8991C12.4365 34.3205 11.9289 34.6509 11.4165 34.8807C11.1675 34.9909 10.9424 35.0675 10.7461 35.1202C12.2545 35.4889 13.6864 35.6757 14.9123 35.7714C19.9356 36.1498 25.548 35.2112 30.3079 33.1903C34.158 31.5574 37.1222 29.3546 38.736 26.9698C38.8797 26.5771 39.0138 26.1797 39.1335 25.7726V25.7679C38.7408 25.2602 38.3146 24.7814 37.8645 24.3408Z" fill="#D7D0FF"/>
<path d="M17.996 27.0227C17.4884 27.7362 16.9424 28.5503 16.3247 29.4793C16.1954 29.6708 16.0613 29.8719 15.9272 30.0778C20.0934 29.9438 24.5948 29.0531 28.5886 27.5542C32.1897 26.199 34.8665 24.5373 36.1068 22.9187C35.4125 22.4542 34.6798 22.0568 33.9088 21.7407C32.6302 22.7128 30.5902 23.7376 28.0331 24.6618C24.8486 25.8015 21.3528 26.6156 17.996 27.0227Z" fill="#D7D0FF"/>
<path d="M9.51503 32.3239C9.51982 32.3 9.52939 32.2808 9.53418 32.2569C7.48941 31.7445 5.67449 30.9735 4.10859 29.9487C3.17479 29.3358 2.34156 28.6414 1.60889 27.8608C2.28888 29.4459 3.16521 30.9208 4.21394 32.2617C5.77027 33.3583 7.45589 34.1245 9.10799 34.6608C8.96433 34.1484 9.21334 33.3295 9.51503 32.3239Z" fill="#D7D0FF"/>
<path d="M31.2225 35.9823C32.0605 35.604 32.8554 35.2017 33.6072 34.7708C35.7957 32.7308 37.534 30.164 38.6545 27.1807C38.0368 28.057 37.2419 28.9046 36.265 29.7187C34.656 31.0643 32.6591 32.2471 30.3222 33.2384C26.247 34.9671 21.5541 35.9057 17.1341 35.9057C16.3823 35.9057 15.6353 35.8769 14.9074 35.8243C13.4229 35.7141 12.0006 35.4843 10.655 35.1491C10.315 35.2305 10.0804 35.2448 9.98938 35.2448C9.96065 35.2448 9.94628 35.2448 9.94628 35.2448C9.58713 35.2113 9.34769 35.1012 9.20882 34.8953C9.17051 34.8426 9.14178 34.7803 9.12262 34.7133C7.32207 34.1291 5.69392 33.3341 4.28125 32.3477C6.08659 34.6415 8.38038 36.5282 11.0046 37.8547C12.4508 38.2569 13.9975 38.5347 15.6257 38.6735C20.7544 39.1189 26.4386 38.1372 31.2225 35.9823Z" fill="#D7D0FF"/>
<path d="M32.707 4.53508C32.6878 4.5255 32.6735 4.51593 32.6543 4.50635C32.6687 4.52071 32.683 4.53029 32.6974 4.54466L32.707 4.53508Z" fill="#17343E"/>
<path d="M14.8691 4.07518C14.8786 4.07997 14.893 4.07997 14.9026 4.08476C15.5107 4.25715 16.0183 4.50138 16.435 4.82701C17.3783 5.55968 17.7566 6.59883 18.1589 7.70023C18.451 8.49994 18.7527 9.3236 19.289 10.0611C19.8972 10.8943 20.7304 11.5025 21.8366 11.9191L21.851 11.9239L21.8462 11.9095C20.9842 9.49599 22.1431 8.44248 23.2589 7.4177C24.2789 6.4839 25.2462 5.60278 24.3794 3.75434C26.6301 5.00898 27.7554 4.60194 28.8425 4.20448C29.8768 3.83096 30.8537 3.4766 32.7118 4.53969C32.707 4.5349 32.707 4.5349 32.7022 4.53011C32.6878 4.51574 32.6734 4.50617 32.6591 4.4918C29.1011 1.59943 24.6093 0 19.9978 0C14.3471 0 9.23276 2.35604 5.59335 6.1439C5.55504 6.187 5.51194 6.22531 5.47363 6.26841C7.05869 4.79349 9.03164 3.97462 11.3446 3.83096C12.786 3.74476 13.9448 3.82138 14.8691 4.07518Z" fill="#7B61FF"/>
<path d="M32.707 4.53516C32.707 4.54024 32.7121 4.54024 32.7172 4.54531C32.7172 4.54024 32.7121 4.53516 32.707 4.53516Z" fill="#17343E"/>
<path d="M32.7118 4.55479L32.7169 4.54463C32.7118 4.54463 32.7118 4.53955 32.7067 4.53955L32.7017 4.54971C32.7017 4.54463 32.7067 4.54971 32.7118 4.55479Z" fill="#17343E"/>
<path d="M23.9971 19.9977C24.3127 19.9977 24.5685 19.7419 24.5685 19.4263C24.5685 19.1108 24.3127 18.855 23.9971 18.855C23.6816 18.855 23.4258 19.1108 23.4258 19.4263C23.4258 19.7419 23.6816 19.9977 23.9971 19.9977Z" fill="white"/>
<path d="M5.74174 23.8142C6.42174 24.0057 7.15441 24.1637 7.93497 24.2787C7.90145 24.2595 7.86792 24.2356 7.83919 24.2164C7.10173 24.1015 6.40258 23.953 5.75611 23.7711C2.98824 22.9857 1.06319 21.5778 0.00488281 19.5762C0.00488281 19.6097 0.00488281 19.6432 0.00488281 19.6719C1.07276 21.6449 2.99782 23.0336 5.74174 23.8142Z" fill="#7B61FF"/>
<path d="M28.6457 21.2954C29.0815 21.1326 29.4981 20.9698 29.8908 20.8069C29.8525 20.8022 29.8142 20.8022 29.7711 20.7974C27.5587 21.7024 24.6376 22.6314 21.4674 23.3306C21.4387 23.3545 21.4052 23.3737 21.3765 23.3976C23.8953 22.8565 26.4094 22.1286 28.6457 21.2954Z" fill="#7B61FF"/>
<path d="M18.0344 26.97C18.02 26.9892 18.0105 27.0035 17.9961 27.0227C21.353 26.6156 24.8487 25.8016 28.0284 24.6571C30.5856 23.7376 32.6256 22.7128 33.9041 21.736C33.8898 21.7312 33.8706 21.7216 33.8563 21.7168C32.5825 22.6793 30.5568 23.6945 28.0141 24.6092C24.8487 25.7489 21.3769 26.563 18.0344 26.97Z" fill="#7B61FF"/>
<path d="M4.31456 25.5525C5.9523 26.357 7.91088 26.8886 10.1568 27.1424C10.152 27.128 10.1472 27.1089 10.1472 27.0945C6.15343 26.6492 2.1405 25.2365 0.0717773 21.7168C0.076566 21.7455 0.076566 21.779 0.0813547 21.8078C1.03909 23.3881 2.45176 24.6427 4.31456 25.5525Z" fill="#7B61FF"/>
<path d="M28.5884 27.549C24.5946 29.0479 20.0932 29.9386 15.9271 30.0727C15.9175 30.087 15.9031 30.1062 15.8936 30.1206C20.0741 29.9865 24.5946 29.0958 28.6076 27.5921C32.2182 26.2369 34.8999 24.5657 36.1498 22.9375C36.1354 22.9279 36.1258 22.9184 36.1114 22.9136C34.8664 24.5322 32.1895 26.1938 28.5884 27.549Z" fill="#7B61FF"/>
<path d="M4.10377 27.6835C5.80854 28.6843 7.83416 29.3835 10.1567 29.7713C10.1615 29.757 10.1615 29.7378 10.1663 29.7234C5.76066 28.9812 2.46124 27.1232 0.464355 24.2979C0.473933 24.3505 0.488299 24.4032 0.497876 24.4559C1.42688 25.7393 2.62885 26.8215 4.10377 27.6835Z" fill="#7B61FF"/>
<path d="M4.10862 29.9483C5.67453 30.9731 7.48944 31.7441 9.53422 32.2565C9.53901 32.2373 9.54379 32.2182 9.55337 32.199C6.77593 31.4999 3.81172 30.1782 1.56104 27.7407C1.58019 27.779 1.59456 27.8221 1.61371 27.8604C2.34159 28.641 3.17483 29.3354 4.10862 29.9483Z" fill="#7B61FF"/>
<path d="M29.4076 30.3889C24.662 32.2804 19.131 33.1998 14.2322 32.9077C14.1316 32.9029 14.0358 32.8934 13.9353 32.8886C13.9209 32.9029 13.9113 32.9173 13.897 32.9317C14.0071 32.9412 14.122 32.946 14.2322 32.9556C14.8308 32.9891 15.4389 33.0083 16.0567 33.0083C20.4766 33.0083 25.2558 32.0984 29.4267 30.4368C33.6025 28.7703 36.605 26.5914 37.8644 24.3455C37.8548 24.336 37.8405 24.3216 37.8309 24.312C36.581 26.5483 33.5833 28.7272 29.4076 30.3889Z" fill="#7B61FF"/>
<path d="M9.10792 34.6657C7.45582 34.1294 5.77498 33.3632 4.21387 32.2666C4.23302 32.2953 4.25697 32.3193 4.27612 32.348C5.68879 33.3345 7.32173 34.1294 9.11749 34.7136C9.11749 34.6993 9.11271 34.6801 9.10792 34.6657Z" fill="#7B61FF"/>
<path d="M30.3027 33.1951C25.5428 35.216 19.9304 36.1545 14.9071 35.7762C13.6811 35.6853 12.2493 35.4937 10.7409 35.125C10.7074 35.1346 10.6786 35.1393 10.6499 35.1489C11.9955 35.4841 13.4178 35.7092 14.9023 35.8241C15.6349 35.8816 16.3772 35.9055 17.129 35.9055C21.549 35.9055 26.2419 34.9669 30.3171 33.2382C32.654 32.247 34.6509 31.0642 36.2599 29.7185C37.2368 28.9045 38.0317 28.0521 38.6494 27.1805C38.6734 27.1135 38.7021 27.0464 38.726 26.9746C37.117 29.3546 34.1576 31.5622 30.3027 33.1951Z" fill="#7B61FF"/>
<path d="M15.6207 38.7215C16.4491 38.7933 17.292 38.8268 18.1396 38.8268C19.9593 38.8268 21.8125 38.6592 23.6801 38.3336C26.3378 37.8643 28.8854 37.0837 31.2462 36.0207C32.0172 35.6711 32.7547 35.3024 33.4586 34.9049C33.5113 34.857 33.5592 34.8091 33.6118 34.7612C32.86 35.1922 32.0651 35.5945 31.2271 35.9728C26.4432 38.1277 20.759 39.1142 15.6255 38.6688C13.9925 38.5299 12.4506 38.2522 11.0044 37.8499C11.0714 37.8835 11.1385 37.917 11.2055 37.9505C12.6038 38.3336 14.0835 38.5922 15.6207 38.7215Z" fill="#7B61FF"/>
<path d="M29.8912 10.492C30.8619 10.492 31.6487 9.70512 31.6487 8.7345C31.6487 7.76389 30.8619 6.97705 29.8912 6.97705C28.9206 6.97705 28.1338 7.76389 28.1338 8.7345C28.1338 9.70512 28.9206 10.492 29.8912 10.492Z" fill="#7B61FF"/>
<path d="M34.0206 12.7808C34.333 12.4685 34.333 11.9622 34.0206 11.6499C33.7083 11.3376 33.202 11.3376 32.8897 11.6499C32.5774 11.9622 32.5774 12.4685 32.8897 12.7808C33.202 13.0931 33.7083 13.0931 34.0206 12.7808Z" fill="#7B61FF"/>
</svg>
