<svg width="60" height="60" viewBox="0 0 60 60" fill="none" xmlns="http://www.w3.org/2000/svg">
<path d="M36.0035 54.0235C36.0035 54.6233 36.2323 55.2231 36.6899 55.6807C37.6052 56.596 39.0892 56.596 40.0045 55.6807C43.4733 52.2119 46.1593 48.1685 47.9881 43.663C49.7544 39.3113 50.6499 34.7144 50.6499 30C50.6499 25.2856 49.7544 20.6887 47.9881 16.337C46.1594 11.8314 43.4733 7.78807 40.0045 4.31926C39.0892 3.40396 37.6052 3.40396 36.6899 4.31926C35.7746 5.23455 35.7746 6.71849 36.6899 7.63379C42.6694 13.6133 45.9624 21.5564 45.9624 30C45.9624 38.4436 42.6694 46.3868 36.6899 52.3662C36.2323 52.8238 36.0035 53.4236 36.0035 54.0235Z" fill="#7B61FF"/>
<path d="M27.8279 13.5938C27.8279 14.1936 28.0567 14.7934 28.5144 15.251C36.6469 23.3837 36.6469 36.6164 28.5144 44.749C27.5991 45.6643 27.5991 47.1482 28.5144 48.0635C29.4297 48.9788 30.9137 48.9788 31.829 48.0635C34.2686 45.6239 36.1578 42.7799 37.4443 39.6103C38.6867 36.5493 39.3167 33.3159 39.3167 30C39.3167 26.6842 38.6867 23.4508 37.4443 20.3898C36.1578 17.2202 34.2686 14.3761 31.829 11.9364C30.9137 11.0212 29.4297 11.0212 28.5144 11.9364C28.0567 12.3941 27.8279 12.994 27.8279 13.5938Z" fill="#7B61FF"/>
<path d="M20.7365 23.2617C20.7364 23.8616 20.9653 24.4614 21.423 24.9191C22.7817 26.2777 23.5299 28.0821 23.5299 30C23.5299 31.9179 22.7817 33.7224 21.423 35.081C20.5077 35.9963 20.5077 37.4802 21.423 38.3956C22.3382 39.3109 23.8222 39.3109 24.7375 38.3956C26.9815 36.1516 28.2174 33.1699 28.2174 30C28.2174 26.8299 26.9815 23.8484 24.7375 21.6043C23.8222 20.6891 22.3382 20.6891 21.4229 21.6044C20.9654 22.062 20.7366 22.662 20.7365 23.2617Z" fill="#7B61FF"/>
<path d="M14.9338 33.2998C14.0586 33.2998 13.2192 32.9521 12.6004 32.3333C11.9815 31.7144 11.6339 30.8751 11.6339 29.9999C11.6339 29.1247 11.9815 28.2854 12.6004 27.6666C13.2192 27.0477 14.0586 26.7 14.9338 26.7C15.8089 26.7 16.6483 27.0477 17.2671 27.6666C17.886 28.2854 18.2336 29.1247 18.2336 29.9999C18.2336 30.8751 17.886 31.7144 17.2671 32.3333C16.6483 32.9521 15.8089 33.2998 14.9338 33.2998Z" fill="#7B61FF"/>
</svg>
