<svg width="60" height="60" viewBox="0 0 60 60" fill="none" xmlns="http://www.w3.org/2000/svg">
<path d="M23.9965 54.0235C23.9965 54.6233 23.7677 55.2231 23.3101 55.6807C22.3948 56.596 20.9108 56.596 19.9955 55.6807C16.5267 52.2119 13.8407 48.1685 12.0119 43.663C10.2456 39.3113 9.3501 34.7144 9.3501 30C9.3501 25.2856 10.2456 20.6887 12.0119 16.337C13.8406 11.8314 16.5267 7.78807 19.9955 4.31926C20.9108 3.40396 22.3948 3.40396 23.3101 4.31926C24.2254 5.23455 24.2254 6.71849 23.3101 7.63379C17.3306 13.6133 14.0376 21.5564 14.0376 30C14.0376 38.4436 17.3306 46.3868 23.3101 52.3662C23.7677 52.8238 23.9965 53.4236 23.9965 54.0235Z" fill="#375BD2"/>
<path d="M32.1721 13.5938C32.1721 14.1936 31.9433 14.7934 31.4856 15.251C23.3531 23.3837 23.3531 36.6164 31.4856 44.749C32.4009 45.6643 32.4009 47.1482 31.4856 48.0635C30.5703 48.9788 29.0863 48.9788 28.171 48.0635C25.7314 45.6239 23.8422 42.7799 22.5557 39.6103C21.3133 36.5493 20.6833 33.3159 20.6833 30C20.6833 26.6842 21.3133 23.4508 22.5557 20.3898C23.8422 17.2202 25.7314 14.3761 28.171 11.9364C29.0863 11.0212 30.5703 11.0212 31.4856 11.9364C31.9433 12.3941 32.1721 12.994 32.1721 13.5938Z" fill="#375BD2"/>
<path d="M39.2635 23.2617C39.2636 23.8616 39.0347 24.4614 38.577 24.9191C37.2183 26.2777 36.4701 28.0821 36.4701 30C36.4701 31.9179 37.2183 33.7224 38.577 35.081C39.4923 35.9963 39.4923 37.4802 38.577 38.3956C37.6618 39.3109 36.1778 39.3109 35.2625 38.3956C33.0185 36.1516 31.7826 33.1699 31.7826 30C31.7826 26.8299 33.0185 23.8484 35.2625 21.6043C36.1778 20.6891 37.6618 20.6891 38.5771 21.6044C39.0346 22.062 39.2634 22.662 39.2635 23.2617Z" fill="#375BD2"/>
<path d="M45.0662 33.2998C45.9414 33.2998 46.7808 32.9521 47.3996 32.3333C48.0185 31.7144 48.3661 30.8751 48.3661 29.9999C48.3661 29.1247 48.0185 28.2854 47.3996 27.6666C46.7808 27.0477 45.9414 26.7 45.0662 26.7C44.1911 26.7 43.3517 27.0477 42.7329 27.6666C42.114 28.2854 41.7664 29.1247 41.7664 29.9999C41.7664 30.8751 42.114 31.7144 42.7329 32.3333C43.3517 32.9521 44.1911 33.2998 45.0662 33.2998Z" fill="#375BD2"/>
</svg>
