<svg width="40" height="40" viewBox="0 0 40 40" fill="none" xmlns="http://www.w3.org/2000/svg">
<path d="M38.8347 21.0318C38.1152 19.6096 37.2097 18.3023 36.03 17.2009C33.612 14.9358 30.4353 13.686 27.0873 13.686C25.3301 13.686 23.6218 14.026 22.0163 14.6916C16.9943 16.7412 15.6287 16.8322 14.9728 16.88C14.9238 16.8848 14.8798 16.8848 14.8357 16.8896C13.0687 17.0141 11.4241 16.4682 10.1955 15.3524C8.92776 14.1984 8.20334 12.5319 8.20334 10.7792C8.20334 7.5325 10.6654 4.08464 15.2273 4.08464C15.2175 4.07985 15.2028 4.07985 15.1931 4.07506C14.2484 3.82126 13.0638 3.74464 11.5905 3.83084C9.22634 3.96971 7.2097 4.78858 5.58953 6.2635C3.42605 8.50461 1.78141 11.2294 0.856301 14.2558C0.817143 14.3803 0.78288 14.5001 0.748617 14.6246C-0.602337 20.0933 2.57926 21.5778 5.65806 23.0096C6.48528 23.3927 7.29781 23.771 8.01244 24.2163C8.0467 24.2355 8.08097 24.2594 8.11034 24.2786C9.18718 24.9634 10.0291 25.8158 10.3717 27.0943C10.3766 27.1087 10.3815 27.1279 10.3815 27.1422C10.4109 27.2619 10.4402 27.3817 10.4598 27.5062C10.5479 28.2628 10.5039 29.0098 10.3864 29.7233C10.3815 29.7377 10.3815 29.7569 10.3766 29.7712C10.2298 30.6428 9.98503 31.4664 9.75987 32.1991C9.75497 32.2182 9.75008 32.2374 9.74029 32.2566C9.7354 32.2805 9.72561 32.2997 9.72071 32.3236C9.41234 33.3292 9.15781 34.1529 9.30466 34.6653C9.30955 34.6796 9.31445 34.6988 9.31934 34.7132C9.34382 34.7802 9.37318 34.8425 9.40745 34.8951C9.5494 35.0963 9.79413 35.2112 10.1612 35.2447C10.1612 35.2447 10.1759 35.2447 10.2053 35.2447C10.2983 35.2447 10.543 35.2351 10.8857 35.1489C10.915 35.1394 10.9493 35.1346 10.9787 35.125C11.1794 35.0723 11.4094 34.9957 11.6639 34.8856C12.1877 34.6557 12.7114 34.3253 13.2107 33.9039C13.5484 33.6213 13.8813 33.2957 14.1994 32.9318C14.2141 32.9174 14.2239 32.903 14.2386 32.8887C14.498 32.5918 14.7525 32.2661 14.9973 31.9166C15.4427 31.2845 15.8587 30.6811 16.2405 30.1208C16.2503 30.1064 16.265 30.0873 16.2748 30.0729C16.4167 29.867 16.5538 29.6707 16.6811 29.4743C17.3125 28.5501 17.8705 27.7312 18.3893 27.0177C18.404 26.9986 18.4138 26.9842 18.4285 26.965C19.104 26.0408 19.7109 25.2938 20.3326 24.7048C20.8171 24.2259 21.3213 23.7901 21.845 23.3975C21.8744 23.3735 21.9087 23.3496 21.938 23.3304C24.2141 21.6544 26.8622 20.778 29.7011 20.778C29.9459 20.778 30.1857 20.7828 30.4255 20.7972C30.4647 20.7972 30.5039 20.802 30.5479 20.8068C31.9625 20.893 33.3281 21.2042 34.6057 21.7118C34.6204 21.7166 34.6399 21.7262 34.6546 21.731C35.4427 22.047 36.1965 22.4445 36.9013 22.909C36.916 22.9186 36.9258 22.9282 36.9405 22.933C37.5474 23.3352 38.125 23.7949 38.6585 24.2977C38.6683 24.3073 38.683 24.3217 38.6928 24.3313C39.1578 24.7718 39.5885 25.2507 39.9899 25.7631C39.9997 25.7679 39.9997 23.3352 38.8347 21.0318Z" fill="#7B61FF"/>
<path d="M21.8501 23.4071C21.3264 23.7998 20.8222 24.2355 20.3377 24.7144C19.716 25.2986 19.1091 26.0505 18.4336 26.9747C21.8452 26.5676 25.3988 25.7536 28.6343 24.6138C31.2334 23.6992 33.3039 22.684 34.6059 21.7215C33.3283 21.2139 31.9627 20.9026 30.5481 20.8164C30.1468 20.9792 29.7258 21.142 29.2755 21.3049C26.9945 22.1285 24.4248 22.8564 21.8501 23.4071Z" fill="#D7D0FF"/>
<path d="M9.76526 32.2042C9.99042 31.4715 10.2352 30.6478 10.382 29.7763C8.00804 29.3884 5.93755 28.6893 4.19502 27.6884C2.68743 26.8217 1.45885 25.7442 0.51416 24.4561C0.778477 25.591 1.14558 26.6924 1.5959 27.7459C3.89644 30.1833 6.9214 31.5002 9.76526 32.2042Z" fill="#D7D0FF"/>
<path d="M29.7064 20.7827C26.8675 20.7827 24.2194 21.659 21.9434 23.3351C25.1837 22.6359 28.1744 21.7069 30.4309 20.8019C30.191 20.7923 29.9512 20.7827 29.7064 20.7827Z" fill="#D7D0FF"/>
<path d="M10.372 27.0944C10.0294 25.8158 9.18257 24.9682 8.11062 24.2786C7.31277 24.1637 6.56387 24.0056 5.86882 23.8141C3.06412 23.0335 1.09643 21.6448 0.00489476 19.6719C0.00489476 19.782 0 19.8874 0 19.9975C0 20.5769 0.0244738 21.1468 0.0734214 21.7119C2.18796 25.2363 6.28977 26.649 10.372 27.0944Z" fill="#D7D0FF"/>
<path d="M5.88349 23.7709C6.54428 23.9529 7.25402 24.1061 8.01271 24.2163C7.29808 23.7709 6.48555 23.3926 5.65833 23.0095C2.57953 21.5777 -0.602068 20.098 0.748886 14.6245C0.298568 16.2048 0.0391461 17.8617 0.00488281 19.576C1.08662 21.5777 3.05432 22.9856 5.88349 23.7709Z" fill="#D7D0FF"/>
<path d="M10.387 29.7237C10.5044 29.0102 10.5485 28.2632 10.4604 27.5066C10.4408 27.3821 10.4114 27.2623 10.3821 27.1426C8.08643 26.8888 6.08447 26.3573 4.41046 25.5528C2.5064 24.6381 1.06245 23.3835 0.0834961 21.8032C0.161812 22.6508 0.293971 23.4793 0.475077 24.2933C2.51619 27.1235 5.88868 28.9815 10.387 29.7237Z" fill="#D7D0FF"/>
<path d="M24.2045 38.3385C22.3004 38.6689 20.4012 38.8317 18.5412 38.8317C17.6749 38.8317 16.8134 38.7982 15.9666 38.7264C14.3954 38.5923 12.8829 38.3337 11.4487 37.9602C14.1653 39.2675 17.2148 40.0001 20.4404 40.0001C25.761 40.0001 30.5677 38.1421 34.1947 34.9146C33.48 35.3072 32.7263 35.6807 31.9333 36.0303C29.5202 37.0886 26.9211 37.8692 24.2045 38.3385Z" fill="#D7D0FF"/>
<path d="M29.2363 27.5927C25.1394 29.0963 20.5139 29.9918 16.2407 30.1211C15.8589 30.6766 15.4429 31.28 14.9975 31.9169C14.7527 32.2665 14.4982 32.5921 14.2388 32.889C14.3416 32.8938 14.4444 32.9034 14.5422 32.9082C19.5496 33.2003 25.203 32.2808 30.0537 30.3893C34.322 28.7276 37.3861 26.544 38.6587 24.3077C38.1203 23.8 37.5476 23.3451 36.9407 22.9429C35.668 24.5662 32.927 26.2375 29.2363 27.5927Z" fill="#D7D0FF"/>
<path d="M38.7029 24.3408C37.4205 26.5867 34.3466 28.7704 30.0783 30.432C25.815 32.0937 20.9349 33.0036 16.4122 33.0036C15.7808 33.0036 15.1591 32.9844 14.5473 32.9509C14.4347 32.9461 14.3172 32.9365 14.2046 32.927C13.8865 33.2909 13.5536 33.6165 13.2159 33.8991C12.7117 34.3205 12.1929 34.6509 11.6692 34.8807C11.4146 34.9909 11.1846 35.0675 10.9839 35.1202C12.5257 35.4889 13.9893 35.6757 15.2423 35.7714C20.3769 36.1498 26.1136 35.2112 30.979 33.1903C34.9144 31.5574 37.9442 29.3546 39.5938 26.9698C39.7406 26.5771 39.8777 26.1797 40 25.7726V25.7679C39.5987 25.2602 39.163 24.7814 38.7029 24.3408Z" fill="#D7D0FF"/>
<path d="M18.3943 27.0227C17.8755 27.7362 17.3175 28.5503 16.686 29.4793C16.5539 29.6708 16.4168 29.8719 16.2798 30.0778C20.5382 29.9438 25.1393 29.0531 29.2215 27.5542C32.9024 26.199 35.6386 24.5373 36.9063 22.9187C36.1966 22.4542 35.4477 22.0568 34.6596 21.7407C33.3527 22.7128 31.2675 23.7376 28.6537 24.6618C25.3987 25.8015 21.8255 26.6156 18.3943 27.0227Z" fill="#D7D0FF"/>
<path d="M9.72578 32.3239C9.73068 32.3 9.74046 32.2808 9.74536 32.2569C7.6553 31.7445 5.80018 30.9735 4.1996 29.9487C3.24512 29.3358 2.39343 28.6414 1.64453 27.8608C2.33959 29.4459 3.23533 30.9208 4.30728 32.2617C5.89808 33.3583 7.62103 34.1245 9.30973 34.6608C9.16288 34.1484 9.41741 33.3295 9.72578 32.3239Z" fill="#D7D0FF"/>
<path d="M31.9139 35.9823C32.7705 35.604 33.583 35.2017 34.3515 34.7708C36.5884 32.7308 38.3652 30.164 39.5106 27.1807C38.8791 28.057 38.0666 28.9046 37.0681 29.7187C35.4234 31.0643 33.3823 32.2471 30.9937 33.2384C26.8282 34.9671 22.0314 35.9057 17.5135 35.9057C16.745 35.9057 15.9815 35.8769 15.2374 35.8243C13.7201 35.7141 12.2663 35.4843 10.8909 35.1491C10.5434 35.2305 10.3035 35.2448 10.2105 35.2448C10.1812 35.2448 10.1665 35.2448 10.1665 35.2448C9.79937 35.2113 9.55463 35.1012 9.41268 34.8953C9.37353 34.8426 9.34416 34.7803 9.32458 34.7133C7.48415 34.1291 5.81993 33.3341 4.37598 32.3477C6.2213 34.6415 8.56589 36.5282 11.2482 37.8547C12.7264 38.2569 14.3074 38.5347 15.9717 38.6735C21.214 39.1189 27.024 38.1372 31.9139 35.9823Z" fill="#D7D0FF"/>
<path d="M33.4313 4.53508C33.4117 4.5255 33.397 4.51593 33.3774 4.50635C33.3921 4.52071 33.4068 4.53029 33.4215 4.54466L33.4313 4.53508Z" fill="#17343E"/>
<path d="M15.1982 4.07518C15.208 4.07997 15.2227 4.07997 15.2325 4.08476C15.8541 4.25715 16.373 4.50138 16.7988 4.82701C17.7631 5.55968 18.1498 6.59883 18.5609 7.70023C18.8595 8.49994 19.1679 9.3236 19.7161 10.0611C20.3377 10.8943 21.1894 11.5025 22.3201 11.9191L22.3348 11.9239L22.3299 11.9095C21.4489 9.49599 22.6334 8.44248 23.7739 7.4177C24.8165 6.4839 25.8052 5.60278 24.9192 3.75434C27.2198 5.00898 28.37 4.60194 29.4812 4.20448C30.5384 3.83096 31.537 3.4766 33.4361 4.53969C33.4312 4.5349 33.4312 4.5349 33.4263 4.53011C33.4117 4.51574 33.397 4.50617 33.3823 4.4918C29.7455 1.59943 25.1542 0 20.4405 0C14.6647 0 9.43711 2.35604 5.7171 6.1439C5.67794 6.187 5.63388 6.22531 5.59473 6.26841C7.21489 4.79349 9.23153 3.97462 11.5957 3.83096C13.069 3.74476 14.2536 3.82138 15.1982 4.07518Z" fill="#7B61FF"/>
<path d="M33.4316 4.53516C33.4316 4.54024 33.4367 4.54024 33.4418 4.54531C33.4418 4.54024 33.4367 4.53516 33.4316 4.53516Z" fill="#17343E"/>
<path d="M33.4359 4.55479L33.441 4.54463C33.4359 4.54463 33.4359 4.53955 33.4309 4.53955L33.4258 4.54971C33.4258 4.54463 33.4309 4.54971 33.4359 4.55479Z" fill="#17343E"/>
<path d="M24.5288 19.9977C24.8514 19.9977 25.1129 19.7419 25.1129 19.4263C25.1129 19.1108 24.8514 18.855 24.5288 18.855C24.2063 18.855 23.9448 19.1108 23.9448 19.4263C23.9448 19.7419 24.2063 19.9977 24.5288 19.9977Z" fill="white"/>
<path d="M5.86881 23.8142C6.56386 24.0057 7.31276 24.1637 8.11061 24.2787C8.07634 24.2595 8.04208 24.2356 8.01271 24.2164C7.25892 24.1015 6.54428 23.953 5.88349 23.7711C3.05432 22.9857 1.08662 21.5778 0.00488281 19.5762C0.00488281 19.6097 0.00488281 19.6432 0.00488281 19.6719C1.09641 21.6449 3.06411 23.0336 5.86881 23.8142Z" fill="#7B61FF"/>
<path d="M29.2803 21.2954C29.7258 21.1326 30.1516 20.9698 30.553 20.8069C30.5138 20.8022 30.4747 20.8022 30.4306 20.7974C28.1692 21.7024 25.1834 22.6314 21.9431 23.3306C21.9137 23.3545 21.8795 23.3737 21.8501 23.3976C24.4247 22.8565 26.9945 22.1286 29.2803 21.2954Z" fill="#7B61FF"/>
<path d="M18.4337 26.97C18.419 26.9892 18.4092 27.0035 18.3945 27.0227C21.8258 26.6156 25.3989 25.8016 28.6491 24.6571C31.2629 23.7376 33.348 22.7128 34.6549 21.736C34.6402 21.7312 34.6207 21.7216 34.606 21.7168C33.304 22.6793 31.2335 23.6945 28.6344 24.6092C25.3989 25.7489 21.8502 26.563 18.4337 26.97Z" fill="#7B61FF"/>
<path d="M4.41 25.5525C6.08401 26.357 8.08597 26.8886 10.3816 27.1424C10.3767 27.128 10.3718 27.1089 10.3718 27.0945C6.28959 26.6492 2.18778 25.2365 0.0732422 21.7168C0.0781369 21.7455 0.078137 21.779 0.0830317 21.8078C1.06198 23.3881 2.50594 24.6427 4.41 25.5525Z" fill="#7B61FF"/>
<path d="M29.2216 27.549C25.1394 29.0479 20.5383 29.9386 16.2799 30.0727C16.2701 30.087 16.2554 30.1062 16.2456 30.1206C20.5187 29.9865 25.1394 29.0958 29.2412 27.5921C32.9318 26.2369 35.6729 24.5657 36.9504 22.9375C36.9358 22.9279 36.926 22.9184 36.9113 22.9136C35.6386 24.5322 32.9025 26.1938 29.2216 27.549Z" fill="#7B61FF"/>
<![CDATA[<path d="M4.19463 27.6835C5.93716 28.6843 8.00765 29.3835 10.3816 29.7713C10.3865 29.757 10.3865 29.7378 10.3914 29.7234C5.88821 28.9812 2.51572 27.1232 0.474609 24.2979C0.484399 24.3505 0.499083 24.4032 0.508873 24.4559C1.45846 25.7393 2.68704 26.8215 4.19463 27.6835Z" fill="#7B61FF"/>]]>
<path d="M4.19972 29.9483C5.8003 30.9731 7.65542 31.7441 9.74548 32.2565C9.75037 32.2373 9.75527 32.2182 9.76506 32.199C6.9261 31.4999 3.89624 30.1782 1.5957 27.7407C1.61528 27.779 1.62997 27.8221 1.64955 27.8604C2.39355 28.641 3.24524 29.3354 4.19972 29.9483Z" fill="#7B61FF"/>
<path d="M30.0587 30.3889C25.208 32.2804 19.5546 33.1998 14.5472 32.9077C14.4444 32.9029 14.3465 32.8934 14.2437 32.8886C14.2291 32.9029 14.2193 32.9173 14.2046 32.9317C14.3172 32.9412 14.4346 32.946 14.5472 32.9556C15.1591 32.9891 15.7807 33.0083 16.4121 33.0083C20.93 33.0083 25.815 32.0984 30.0783 30.4368C34.3465 28.7703 37.4155 26.5914 38.7029 24.3455C38.6931 24.336 38.6784 24.3216 38.6686 24.312C37.3911 26.5483 34.3269 28.7272 30.0587 30.3889Z" fill="#7B61FF"/>
<path d="M9.30957 34.6657C7.62088 34.1294 5.90282 33.3632 4.30713 32.2666C4.32671 32.2953 4.35118 32.3193 4.37076 32.348C5.81472 33.3345 7.48383 34.1294 9.31936 34.7136C9.31936 34.6993 9.31447 34.6801 9.30957 34.6657Z" fill="#7B61FF"/>
<path d="M30.9738 33.1951C26.1084 35.216 20.3718 36.1545 15.2372 35.7762C13.9841 35.6853 12.5206 35.4937 10.9787 35.125C10.9445 35.1346 10.9151 35.1393 10.8857 35.1489C12.2612 35.4841 13.7149 35.7092 15.2323 35.8241C15.9812 35.8816 16.7399 35.9055 17.5084 35.9055C22.0262 35.9055 26.8231 34.9669 30.9885 33.2382C33.3772 32.247 35.4183 31.0642 37.0629 29.7185C38.0615 28.9045 38.874 28.0521 39.5054 27.1805C39.5299 27.1135 39.5593 27.0464 39.5837 26.9746C37.9391 29.3546 34.9141 31.5622 30.9738 33.1951Z" fill="#7B61FF"/>
<path d="M15.9666 38.7215C16.8134 38.7933 17.6749 38.8268 18.5412 38.8268C20.4012 38.8268 22.2955 38.6592 24.2045 38.3336C26.9211 37.8643 29.5251 37.0837 31.9382 36.0207C32.7263 35.6711 33.48 35.3024 34.1996 34.9049C34.2534 34.857 34.3024 34.8091 34.3562 34.7612C33.5877 35.1922 32.7752 35.5945 31.9186 35.9728C27.0287 38.1277 21.2187 39.1142 15.9715 38.6688C14.3024 38.5299 12.7263 38.2522 11.248 37.8499C11.3166 37.8835 11.3851 37.917 11.4536 37.9505C12.8829 38.3336 14.3954 38.5922 15.9666 38.7215Z" fill="#7B61FF"/>
<path d="M30.5532 10.492C31.5453 10.492 32.3496 9.70512 32.3496 8.7345C32.3496 7.76389 31.5453 6.97705 30.5532 6.97705C29.5611 6.97705 28.7568 7.76389 28.7568 8.7345C28.7568 9.70512 29.5611 10.492 30.5532 10.492Z" fill="#7B61FF"/>
<path d="M34.774 12.7808C35.0933 12.4685 35.0933 11.9622 34.774 11.6499C34.4548 11.3376 33.9373 11.3376 33.618 11.6499C33.2988 11.9622 33.2988 12.4685 33.618 12.7808C33.9373 13.0931 34.4548 13.0931 34.774 12.7808Z" fill="#7B61FF"/>
</svg>
